<svg width="128" height="35" fill="none" xmlns="http://www.w3.org/2000/svg"><g clip-path="url(#clip0_2_1193)" fill="#333"><path d="M13.703 32.526H.263C4.516 23.088 8.77 13.65 13.025 4.221c.08.202.171.404.252.606a218.283 218.283 0 006.71 14.38 5396.872 5396.872 0 00-6.285 13.32zm29.275-.101c-4.74.03-9.49.06-14.229.101-4.153-10.338-8.306-20.676-12.46-31.003 4.477-.06 8.964-.132 13.44-.192 4.417 10.358 8.833 20.726 13.249 31.094zM46.99 1.32H32.862v2.254H46.99V1.321zm2.02 4.71H34.884v2.253h14.128V6.03zm2.022 4.709H36.905v2.253h14.127V10.74zm2.021 4.709H38.926v2.254h14.127v-2.254zm2.021 5.305H40.947v2.254h14.127v-2.254zm2.021 4.609H42.968v2.253h14.127v-2.253zm2.021 4.901H44.99v2.253h14.127v-2.253zm1.981-21.131h-3.365l-.556 1.607h-1.779l3.042-8.468h1.98l3.043 8.468h-1.79l-.575-1.607zm-1.688-4.9l-1.222 3.536h2.445L59.41 4.231zm4.295 1.465h5.134V7.13h-5.134V5.697zm6.134-3.417h1.93l2.688 6.286 2.688-6.285h1.91v8.458h-1.687V5.242l-2.264 5.497H73.82l-2.274-5.497v5.497h-1.698V2.281h-.01zm15.189 6.852h-3.365l-.556 1.607h-1.779l3.042-8.468h1.98l3.042 8.468h-1.788l-.576-1.607zm-1.688-4.9l-1.223 3.536h2.446l-1.223-3.537zm7.448-1.952c2.03 0 3.051 1.173 3.051 2.598 0 1.03-.565 2.071-1.93 2.435l2.022 3.426h-1.961l-1.87-3.294h-.798v3.294h-1.698V2.281h3.184zm-.06 1.405H89.31v2.486h1.415c.95 0 1.364-.495 1.364-1.263 0-.748-.424-1.223-1.364-1.223zm5.446 3.285v3.769h-1.698V2.281h1.698v3.79l3.082-3.79h2.051L97.8 6.475l3.587 4.264h-2.142l-3.072-3.77zM62.977 18.611h-1.415v3.244h-1.698v-8.458h3.113c2.03 0 3.051 1.152 3.051 2.617 0 1.283-.869 2.597-3.052 2.597zm-.071-1.374c.96 0 1.384-.475 1.384-1.223 0-.778-.424-1.233-1.384-1.233h-1.344v2.456h1.344zm6.599-3.84c2.03 0 3.052 1.172 3.052 2.597 0 1.03-.566 2.071-1.93 2.435l2.02 3.426h-1.96l-1.87-3.294h-.798v3.294h-1.698v-8.458h3.184zm-.06 1.404h-1.416v2.486h1.415c.95 0 1.364-.495 1.364-1.263 0-.748-.424-1.223-1.364-1.223zm8.649-.04h-3.213v2.122h2.85v1.344h-2.85v2.244h3.213v1.384h-4.91v-8.468h4.91v1.374zm4.518-1.475c1.88 0 3.405 1.01 3.97 2.738h-1.95c-.404-.808-1.131-1.212-2.03-1.212-1.476 0-2.537 1.08-2.537 2.799 0 1.708 1.05 2.799 2.536 2.799.91 0 1.637-.404 2.031-1.223h1.95c-.565 1.748-2.101 2.739-3.97 2.739-2.436 0-4.295-1.779-4.295-4.315 0-2.527 1.859-4.325 4.295-4.325zm4.527.111h1.697v8.458H87.14v-8.458zm6.386 8.549c-2.385 0-4.335-1.799-4.335-4.335 0-2.537 1.95-4.325 4.335-4.325 2.415 0 4.325 1.788 4.325 4.325 0 2.536-1.93 4.335-4.325 4.335zm0-1.516c1.526 0 2.577-1.101 2.577-2.82 0-1.717-1.05-2.798-2.577-2.798-1.536 0-2.597 1.08-2.597 2.799 0 1.718 1.051 2.82 2.597 2.82zm4.659-7.033h1.697v5.234c0 1.162.627 1.769 1.708 1.769 1.092 0 1.718-.607 1.718-1.769v-5.234h1.708v5.224c0 2.234-1.597 3.325-3.456 3.325-1.86 0-3.385-1.091-3.385-3.325v-5.224h.01zm10.489 8.549c-1.758 0-3.112-.92-3.143-2.526h1.819c.051.677.495 1.131 1.284 1.131.798 0 1.273-.424 1.273-1.03 0-1.83-4.366-.728-4.356-3.79 0-1.526 1.233-2.445 2.982-2.445 1.728 0 2.92.889 3.031 2.415h-1.869c-.041-.556-.485-.99-1.213-1.01-.667-.02-1.162.302-1.162.99 0 1.697 4.335.747 4.335 3.729.01 1.333-1.061 2.536-2.981 2.536zm-46.839 2.567h1.93l2.689 6.285 2.688-6.285h1.91v8.458h-1.698v-5.507l-2.264 5.507h-1.283l-2.274-5.507v5.507h-1.697v-8.458zm14.906 1.364h-3.213v2.122h2.85v1.344h-2.85v2.244h3.213v1.384h-4.91v-8.468h4.911v1.374zm.182-1.364h6.205v1.364h-2.254v7.094h-1.697v-7.094h-2.254v-1.364zm11.722 6.851H85.28l-.556 1.607h-1.778l3.042-8.468h1.98l3.042 8.468h-1.79l-.576-1.607zm-1.677-4.9L85.744 30h2.445l-1.222-3.537zm5.962-1.951v7.114h2.789v1.344h-4.487v-8.458h1.698zm5.881 8.549c-1.758 0-3.112-.92-3.142-2.526h1.818c.051.677.496 1.131 1.284 1.131.798 0 1.273-.424 1.273-1.03 0-1.83-4.365-.728-4.355-3.79 0-1.526 1.233-2.445 2.98-2.445 1.729 0 2.921.889 3.032 2.415h-1.87c-.04-.556-.484-.99-1.212-1.01-.667-.02-1.162.302-1.162.99 0 1.697 4.335.747 4.335 3.729.01 1.333-1.051 2.536-2.98 2.536zm6.235-.677c-.206.797-.553 1.743-1.042 2.836H102.7c.257-1.05.456-2.04.598-2.972h1.658l.089.136zm2.613 1.273v-8.657h1.836v8.657h-1.836zm10.482 0h-2.333l-3.766-6.549h-.053c.075 1.157.112 1.982.112 2.475v4.074h-1.64v-8.657h2.315l3.76 6.484h.042a52.893 52.893 0 01-.089-2.386V25h1.652v8.657zm4.649-7.253c-.691 0-1.226.26-1.604.781-.379.517-.569 1.24-.569 2.167 0 1.93.724 2.896 2.173 2.896.608 0 1.344-.152 2.209-.456v1.54c-.711.295-1.504.443-2.381.443-1.259 0-2.222-.38-2.889-1.142-.667-.766-1.001-1.864-1.001-3.293 0-.9.164-1.687.492-2.362.327-.679.797-1.198 1.409-1.557.616-.364 1.336-.545 2.161-.545.841 0 1.686.203 2.534.61l-.592 1.492a9.694 9.694 0 00-.977-.403 2.91 2.91 0 00-.965-.171zm2.447 6.406c0-.331.089-.582.266-.752.178-.17.436-.254.776-.254.328 0 .58.087.758.26.181.174.272.423.272.746 0 .312-.091.559-.272.74-.182.178-.434.267-.758.267-.332 0-.588-.087-.77-.26-.181-.178-.272-.427-.272-.747z"/></g><defs><clipPath id="clip0_2_1193"><path fill="#fff" d="M0 0h127.453v35H0z"/></clipPath></defs></svg>