<svg width="111" height="32" fill="none" xmlns="http://www.w3.org/2000/svg"><g clip-path="url(#clip0_221_648)"><path d="M13.3 30.88H0C4.21 21.54 8.42 12.2 12.63 2.87c.08.2.17.4.25.6 2.07 4.89 4.29 9.64 6.64 14.23-2.08 4.39-4.15 8.78-6.22 13.18z" fill="#463A73"/><path d="M42.27 30.78c-4.69.03-9.39.06-14.08.1C24.08 20.65 19.97 10.42 15.86.2c4.43-.06 8.87-.13 13.3-.19 4.37 10.25 8.74 20.51 13.11 30.77z" fill="url(#paint0_linear_221_648)"/><path d="M46.24 0H32.26v2.23h13.98V0z" fill="url(#paint1_linear_221_648)"/><path d="M48.24 4.66H34.26v2.23h13.98V4.66z" fill="url(#paint2_linear_221_648)"/><path d="M50.24 9.32H36.26v2.23h13.98V9.32z" fill="url(#paint3_linear_221_648)"/><path d="M52.24 13.98H38.26v2.23h13.98v-2.23z" fill="url(#paint4_linear_221_648)"/><path d="M54.24 19.23H40.26v2.23h13.98v-2.23z" fill="url(#paint5_linear_221_648)"/><path d="M56.24 23.79H42.26v2.23h13.98v-2.23z" fill="url(#paint6_linear_221_648)"/><path d="M58.24 28.64H44.26v2.23h13.98v-2.23z" fill="url(#paint7_linear_221_648)"/><path d="M60.2 7.73h-3.33l-.55 1.59h-1.76L57.57.94h1.96l3.01 8.38h-1.77l-.57-1.59zm-1.67-4.85l-1.21 3.5h2.42l-1.21-3.5zm4.25 1.45h5.08v1.42h-5.08V4.33zM68.85.95h1.91l2.66 6.22L76.08.95h1.89v8.37H76.3V3.88l-2.24 5.44h-1.27l-2.25-5.44v5.44h-1.68V.95h-.01zm15.03 6.78h-3.33L80 9.32h-1.76L81.25.94h1.96l3.01 8.38h-1.77l-.57-1.59zm-1.67-4.85L81 6.38h2.42l-1.21-3.5zM89.58.95c2.01 0 3.02 1.16 3.02 2.57 0 1.02-.56 2.05-1.91 2.41l2 3.39h-1.94L88.9 6.06h-.79v3.26h-1.68V.95h3.15zm-.06 1.39h-1.4V4.8h1.4c.94 0 1.35-.49 1.35-1.25 0-.74-.42-1.21-1.35-1.21zm5.39 3.25v3.73h-1.68V.95h1.68V4.7L97.96.95h2.03L96.52 5.1l3.55 4.22h-2.12l-3.04-3.73zM62.06 17.11h-1.4v3.21h-1.68v-8.37h3.08c2.01 0 3.02 1.14 3.02 2.59 0 1.27-.86 2.57-3.02 2.57zm-.07-1.36c.95 0 1.37-.47 1.37-1.21 0-.77-.42-1.22-1.37-1.22h-1.33v2.43h1.33zm6.53-3.8c2.01 0 3.02 1.16 3.02 2.57 0 1.02-.56 2.05-1.91 2.41l2 3.39h-1.94l-1.85-3.26h-.79v3.26h-1.68v-8.37h3.15zm-.06 1.39h-1.4v2.46h1.4c.94 0 1.35-.49 1.35-1.25 0-.74-.42-1.21-1.35-1.21zm8.56-.04h-3.18v2.1h2.82v1.33h-2.82v2.22h3.18v1.37h-4.86v-8.38h4.86v1.36zm4.47-1.46c1.86 0 3.37 1 3.93 2.71h-1.93c-.4-.8-1.12-1.2-2.01-1.2-1.46 0-2.51 1.07-2.51 2.77 0 1.69 1.04 2.77 2.51 2.77.9 0 1.62-.4 2.01-1.21h1.93c-.56 1.73-2.08 2.71-3.93 2.71-2.41 0-4.25-1.76-4.25-4.27 0-2.5 1.84-4.28 4.25-4.28zm4.48.11h1.68v8.37h-1.68v-8.37zm6.32 8.46c-2.36 0-4.29-1.78-4.29-4.29s1.93-4.28 4.29-4.28c2.39 0 4.28 1.77 4.28 4.28 0 2.51-1.91 4.29-4.28 4.29zm0-1.5c1.51 0 2.55-1.09 2.55-2.79s-1.04-2.77-2.55-2.77c-1.52 0-2.57 1.07-2.57 2.77s1.04 2.79 2.57 2.79zm4.61-6.96h1.68v5.18c0 1.15.62 1.75 1.69 1.75 1.08 0 1.7-.6 1.7-1.75v-5.18h1.69v5.17c0 2.21-1.58 3.29-3.42 3.29-1.84 0-3.35-1.08-3.35-3.29v-5.17h.01zm10.38 8.46c-1.74 0-3.08-.91-3.11-2.5h1.8c.05.67.49 1.12 1.27 1.12.79 0 1.26-.42 1.26-1.02 0-1.81-4.32-.72-4.31-3.75 0-1.51 1.22-2.42 2.95-2.42 1.71 0 2.89.88 3 2.39h-1.85c-.04-.55-.48-.98-1.2-1-.66-.02-1.15.3-1.15.98 0 1.68 4.29.74 4.29 3.69.01 1.32-1.05 2.51-2.95 2.51zm-46.35 2.54h1.91l2.66 6.22 2.66-6.22h1.89v8.37h-1.68v-5.45l-2.24 5.45h-1.27l-2.25-5.45v5.45h-1.68v-8.37zm14.75 1.35H72.5v2.1h2.82v1.33H72.5v2.22h3.18v1.37h-4.86v-8.38h4.86v1.36zm.18-1.35H82v1.35h-2.23v7.02h-1.68V24.3h-2.23v-1.35zm11.6 6.78h-3.33l-.55 1.59h-1.76l3.01-8.38h1.96l3.01 8.38h-1.77l-.57-1.59zm-1.66-4.85l-1.21 3.5h2.42l-1.21-3.5zm5.9-1.93v7.04h2.76v1.33h-4.44v-8.37h1.68zm5.82 8.46c-1.74 0-3.08-.91-3.11-2.5h1.8c.05.67.49 1.12 1.27 1.12.79 0 1.26-.42 1.26-1.02 0-1.81-4.32-.72-4.31-3.75 0-1.51 1.22-2.42 2.95-2.42 1.71 0 2.89.88 3 2.39h-1.85c-.04-.55-.48-.98-1.2-1-.66-.02-1.15.3-1.15.98 0 1.68 4.29.74 4.29 3.69.01 1.32-1.04 2.51-2.95 2.51z" fill="#000"/></g><defs><linearGradient id="paint0_linear_221_648" x1="15.856" y1="15.438" x2="42.266" y2="15.438" gradientUnits="userSpaceOnUse"><stop offset=".228" stop-color="#483D76"/><stop offset="1" stop-color="#6C6498"/></linearGradient><linearGradient id="paint1_linear_221_648" x1="32.257" y1="1.117" x2="46.239" y2="1.117" gradientUnits="userSpaceOnUse"><stop offset=".251" stop-color="#5C5288"/><stop offset="1" stop-color="#5D548A" stop-opacity=".5"/></linearGradient><linearGradient id="paint2_linear_221_648" x1="34.257" y1="5.777" x2="48.239" y2="5.777" gradientUnits="userSpaceOnUse"><stop offset=".251" stop-color="#5C5288"/><stop offset="1" stop-color="#5D548A" stop-opacity=".5"/></linearGradient><linearGradient id="paint3_linear_221_648" x1="36.257" y1="10.438" x2="50.239" y2="10.438" gradientUnits="userSpaceOnUse"><stop offset=".251" stop-color="#5C5288"/><stop offset="1" stop-color="#5D548A" stop-opacity=".5"/></linearGradient><linearGradient id="paint4_linear_221_648" x1="38.257" y1="15.098" x2="52.239" y2="15.098" gradientUnits="userSpaceOnUse"><stop offset=".251" stop-color="#5C5288"/><stop offset="1" stop-color="#5D548A" stop-opacity=".5"/></linearGradient><linearGradient id="paint5_linear_221_648" x1="40.257" y1="20.342" x2="54.239" y2="20.342" gradientUnits="userSpaceOnUse"><stop offset=".251" stop-color="#5C5288"/><stop offset="1" stop-color="#5D548A" stop-opacity=".5"/></linearGradient><linearGradient id="paint6_linear_221_648" x1="42.257" y1="24.905" x2="56.239" y2="24.905" gradientUnits="userSpaceOnUse"><stop offset=".251" stop-color="#5C5288"/><stop offset="1" stop-color="#5D548A" stop-opacity=".5"/></linearGradient><linearGradient id="paint7_linear_221_648" x1="44.257" y1="29.76" x2="58.239" y2="29.76" gradientUnits="userSpaceOnUse"><stop offset=".251" stop-color="#5C5288"/><stop offset="1" stop-color="#5D548A" stop-opacity=".5"/></linearGradient><clipPath id="clip0_221_648"><path fill="#fff" d="M0 0h110.24v31.41H0z"/></clipPath></defs></svg>