<svg width="36" height="36" fill="none" xmlns="http://www.w3.org/2000/svg"><g clip-path="url(#clip0_2_839)" fill="#BDBDBD"><path d="M4.997 11.661a2.15 2.15 0 00-1.579.65 2.124 2.124 0 00-.649 1.557v9.303c0 .62.217 1.147.65 1.58a2.15 2.15 0 001.578.648c.62 0 1.143-.216 1.57-.649a2.17 2.17 0 00.637-1.58v-9.302c0-.606-.216-1.125-.649-1.558a2.125 2.125 0 00-1.558-.649zM22.911 3.31L24.447.476c.101-.187.065-.331-.108-.432-.187-.087-.331-.043-.432.13L22.349 3.03c-1.37-.606-2.82-.91-4.349-.91-1.528 0-2.978.304-4.348.91L12.094.173c-.101-.172-.245-.216-.432-.13-.174.102-.21.246-.108.433L13.09 3.31c-1.558.794-2.798 1.9-3.721 3.321a8.388 8.388 0 00-1.385 4.663h20.011a8.39 8.39 0 00-1.384-4.663c-.923-1.42-2.157-2.527-3.7-3.32zm-8.88 4.122a.81.81 0 01-.596.249.774.774 0 01-.584-.25.83.83 0 01-.238-.594c0-.23.08-.429.238-.595a.777.777 0 01.584-.248c.23 0 .43.082.595.248a.814.814 0 01.25.595.815.815 0 01-.25.595zm9.118 0a.776.776 0 01-.584.249.81.81 0 01-.595-.25.81.81 0 01-.25-.594c0-.23.084-.429.25-.595a.812.812 0 01.595-.248c.23 0 .425.082.584.248a.831.831 0 01.238.595.83.83 0 01-.238.595zM8.07 26.48c0 .665.23 1.227.692 1.688a2.297 2.297 0 001.687.692h1.601l.022 4.912c0 .62.216 1.147.649 1.58.432.432.952.648 1.558.648a2.15 2.15 0 001.579-.648 2.15 2.15 0 00.649-1.58V28.86h2.985v4.91c0 .621.216 1.148.65 1.58a2.15 2.15 0 001.578.65 2.15 2.15 0 001.58-.65 2.15 2.15 0 00.648-1.58v-4.91h1.623a2.27 2.27 0 001.666-.692 2.296 2.296 0 00.692-1.688V12.072H8.07v14.409zm22.933-14.819c-.606 0-1.125.213-1.558.639a2.116 2.116 0 00-.65 1.568v9.303c0 .62.217 1.147.65 1.58.433.432.952.648 1.558.648a2.15 2.15 0 001.579-.649 2.15 2.15 0 00.649-1.58v-9.302c0-.62-.217-1.143-.65-1.568a2.17 2.17 0 00-1.579-.639z"/></g><defs><clipPath id="clip0_2_839"><path fill="#fff" d="M0 0h36v36H0z"/></clipPath></defs></svg>