<svg width="36" height="36" fill="none" xmlns="http://www.w3.org/2000/svg"><path d="M13.026 36c-5.358-.03-9.79-10.968-9.79-16.538 0-9.099 6.825-11.09 9.456-11.09 1.185 0 2.451.465 3.568.877.78.287 1.588.584 2.037.584.269 0 .902-.253 1.462-.474 1.192-.475 2.676-1.065 4.405-1.065h.01c1.29 0 5.203.283 7.556 3.816l.55.828-.792.598c-1.133.855-3.2 2.415-3.2 5.504 0 3.658 2.34 5.065 3.465 5.742.497.298 1.01.606 1.01 1.28 0 .44-3.51 9.884-8.606 9.884-1.248 0-2.13-.375-2.907-.706-.787-.335-1.466-.623-2.587-.623-.569 0-1.288.269-2.049.554-1.04.388-2.218.829-3.553.829h-.035zM24.704 0c.132 4.787-3.29 8.107-6.71 7.899C17.431 4.08 21.413 0 24.704 0z" fill="#BDBDBD"/></svg>