<svg width="112" height="100" fill="none" xmlns="http://www.w3.org/2000/svg"><path opacity=".5" d="M44.788 68.141h5.96v13.294h-5.96V68.141z" fill="#2F80ED"/><path opacity=".3" d="M60.832 57.598h5.959v18.565h-5.96V57.598z" fill="#2F80ED"/><path opacity=".5" d="M76.647 41.555h6.188V68.14h-6.188V41.555z" fill="#2F80ED"/><path d="M12.93 84.185h5.959v5.272h-5.96v-5.272z" fill="#2F80ED"/><path opacity=".7" d="M28.744 78.914h6.188v7.793h-6.188v-7.793z" fill="#2F80ED"/><path opacity=".3" d="M92.69 25.51h5.96v34.61h-5.96V25.51z" fill="#2F80ED"/><path d="M29.036 37.656a18.828 18.828 0 10-18.828-18.828 18.85 18.85 0 0018.828 18.828zm0-16.784a6.608 6.608 0 01-1.667-13V6.097a1.375 1.375 0 012.75 0v1.65a6.616 6.616 0 015.524 6.517 1.375 1.375 0 01-2.75 0 3.86 3.86 0 00-3.814-3.855 1.3 1.3 0 01-.516.03 3.855 3.855 0 00.473 7.682 6.607 6.607 0 011.542 13.031v1.76a1.375 1.375 0 11-2.75 0v-1.69a6.618 6.618 0 01-5.4-6.494 1.375 1.375 0 012.751 0 3.857 3.857 0 103.857-3.857z" fill="#2F80ED"/><path opacity=".5" d="M62.559 22.76h6.747L26.139 65.998a1.418 1.418 0 000 1.98 1.396 1.396 0 001.972.026l43.264-43.227v6.885a1.375 1.375 0 002.75 0V21.525a1.393 1.393 0 00-.11-.464 1.644 1.644 0 00-.348-.634c-.362-.362-.89-.417-1.35-.417h-9.758a1.375 1.375 0 000 2.75z" fill="#2F80ED"/><path d="M110.109 97.25h-11.46V62.87H92.69v34.38h-9.855V70.892h-6.188V97.25H66.79V78.914h-5.96V97.25H50.748V84.185h-5.96V97.25h-9.855v-7.793h-6.188v7.793H18.89v-5.043h-5.96v5.043H1.47a1.375 1.375 0 000 2.75h108.64a1.376 1.376 0 100-2.75z" fill="#2F80ED"/></svg>