<svg width="98" height="100" fill="none" xmlns="http://www.w3.org/2000/svg"><path d="M86.185 81.523l-1.975 4.446a1.359 1.359 0 01-2.122.483l-3.7-3.15-1.252 1.065 6.244 15.26 2.09-4.268a2.484 2.484 0 012.985-1.269l4.755 1.54-5.655-13.748-1.37-.36zM46.087 64.41v3.702c0 6.308 4.897 11.44 10.894 11.44a10.53 10.53 0 007.348-2.992l.01-.023-4.762-.925a1.359 1.359 0 01-.947-1.96l2.24-4.311-3.888-2.92a1.357 1.357 0 010-2.174l3.887-2.91-2.239-4.31a1.358 1.358 0 01.947-1.96l4.762-.928-.151-4.86a1.362 1.362 0 011.711-1.356l1.996.52V10.287h-53.18l-.412 52.877h30.586a1.212 1.212 0 011.198 1.247zM22.492 23.045h16.611a1.235 1.235 0 010 2.469H22.492a1.235 1.235 0 010-2.47zm0 12.344H56.25a1.235 1.235 0 010 2.47H22.492a1.235 1.235 0 010-2.47zm-1.235 14.814a1.235 1.235 0 011.235-1.234H56.25a1.235 1.235 0 010 2.469H22.492a1.235 1.235 0 01-1.235-1.235z" fill="#2F80ED"/><path opacity=".3" d="M49.422 79.624c-3.48-2.675-5.804-6.774-5.804-11.512v-2.479H0v2.48c0 6.307 4.92 11.51 10.917 11.51h38.505z" fill="#2F80ED"/><path d="M68.32 94.462a2.485 2.485 0 012.984 1.268l2.082 4.27 3.74-9.14-1.968-4.809-.472.401a1.359 1.359 0 01-2.122-.483l-1.975-4.446-1.198.314-5.832 14.159 4.76-1.534zm10.067-39.803a10.679 10.679 0 1010.68 10.678 10.691 10.691 0 00-10.68-10.678zm0 9.62a4.402 4.402 0 011.237 8.628v.949a1.234 1.234 0 11-2.469 0V72.9a4.379 4.379 0 01-3.163-4.22 1.232 1.232 0 112.464 0 1.934 1.934 0 001.658 1.912 1.21 1.21 0 01.533.002 1.932 1.932 0 00-.26-3.848 4.4 4.4 0 01-1.232-8.62v-.937a1.234 1.234 0 112.469 0v.93a4.38 4.38 0 013.172 4.226 1.237 1.237 0 11-2.474 0 1.935 1.935 0 00-1.627-1.906 1.205 1.205 0 01-.628.002 1.931 1.931 0 00.32 3.837z" fill="#2F80ED"/><path opacity=".5" d="M93.67 67.93l3.456-2.596-3.455-2.588a1.353 1.353 0 01-.391-1.713l1.989-3.828-4.232-.823a1.352 1.352 0 01-1.098-1.376l.135-4.319-4.177 1.094a1.353 1.353 0 01-1.586-.763l-1.755-3.95-3.288 2.797a1.286 1.286 0 01-1.628.064 1.27 1.27 0 00.132-.454V1.211C77.772.529 77.13 0 76.449 0H22.886a1.234 1.234 0 100 2.469h52.417v45.446l-1.04-.848-1.778 3.95a1.37 1.37 0 01-1.597.762l-4.181-1.093.132 4.32a1.354 1.354 0 01-1.1 1.375l-4.232.823 1.988 3.828a1.355 1.355 0 01-.39 1.713l-3.456 2.588 3.457 2.596a1.355 1.355 0 01.39 1.713l-1.99 3.827 4.233.823a1.353 1.353 0 011.098 1.376l-.136 4.319 4.177-1.094a1.353 1.353 0 011.584.761l1.756 3.952 3.289-2.798a1.353 1.353 0 011.76 0l3.29 2.798 1.755-3.95a1.353 1.353 0 011.584-.763l4.177 1.094-.135-4.32a1.352 1.352 0 011.1-1.375l4.23-.823-1.99-3.827a1.354 1.354 0 01.391-1.712zM78.386 78.485a13.148 13.148 0 1113.148-13.147 13.163 13.163 0 01-13.148 13.148z" fill="#2F80ED"/></svg>