<svg width="102" height="100" fill="none" xmlns="http://www.w3.org/2000/svg"><rect x="1" y="14.043" width="99.449" height="84.957" rx="4" fill="#2F80ED" stroke="#2F80ED" stroke-width="2"/><g opacity=".5"><mask id="path-2-inside-1_2_987" fill="#fff"><rect x="28.985" width="43.478" height="15.942" rx="2"/></mask><rect x="28.985" width="43.478" height="15.942" rx="2" stroke="#2F80ED" stroke-width="6" mask="url(#path-2-inside-1_2_987)"/></g><path d="M61.694 64.585h0a1.123 1.123 0 00-1.134-.916H41.072a1.131 1.131 0 00-1.133.926h0l-1.772 9.91v.001a1.06 1.06 0 00.252.9v.001a1.113 1.113 0 00.883.366H62.33a1.093 1.093 0 00.883-.371l-.075-.066.075.066a1.095 1.095 0 00.252-.926s0 0 0 0l-1.771-9.89z" fill="#6CA9FC" stroke="#2F80ED" stroke-width=".2"/><path d="M23.358 89.578h0a1.118 1.118 0 00.883.376H47.27a1.1 1.1 0 001.135-1.301s0 0 0 0l-1.772-9.889h0a1.122 1.122 0 00-1.134-.915H26.012a1.129 1.129 0 00-1.134.923h0l-1.772 9.893s0 0 0 0a1.087 1.087 0 00.252.913z" fill="#C1D9FA" stroke="#2F80ED" stroke-width=".2"/><path d="M55 78.772h0l-1.772 9.91s0 0 0 0a1.063 1.063 0 00.252.903h0a1.114 1.114 0 00.882.369h23.03a1.1 1.1 0 001.134-1.301s0 0 0 0l-1.771-9.889h0a1.122 1.122 0 00-1.135-.915H56.133a1.129 1.129 0 00-1.134.923z" fill="#97BFF6" stroke="#2F80ED" stroke-width=".2"/><path d="M51.296 54.765a16.513 16.513 0 10-16.513-16.513 16.532 16.532 0 0016.513 16.513zm0-30.1a13.587 13.587 0 11-13.587 13.587 13.602 13.602 0 0113.587-13.587z" fill="#fff"/><path d="M51.296 45.082a2.437 2.437 0 01-2.435-2.435 1.463 1.463 0 10-2.926 0 5.369 5.369 0 004.208 5.235v1.055a1.463 1.463 0 102.926 0v-1.232a5.36 5.36 0 00-1.773-10.418 2.434 2.434 0 112.434-2.435 1.463 1.463 0 002.926 0 5.37 5.37 0 00-3.83-5.137v-1.02a1.463 1.463 0 10-2.927 0v.982a5.36 5.36 0 001.397 10.535 2.434 2.434 0 010 4.869z" fill="#C1D9FA"/></svg>