<svg width="87" height="100" fill="none" xmlns="http://www.w3.org/2000/svg"><path opacity=".3" d="M45.043 1.384L43.434 0l-1.61 1.376C32.25 9.748 20.698 14.139 8.416 14.139H0V45.21c0 13.564 3.434 23.972 10.861 32.755 6.26 7.401 15.135 13.58 29.737 20.66l2.83 1.375 2.827-1.374c14.603-7.08 23.492-13.26 29.751-20.661 7.427-8.783 10.862-19.19 10.862-32.755V14.14h-8.416c-12.283 0-23.835-4.383-33.409-12.755zm37.071 19.03V45.21c0 12.343-3.137 21.748-9.775 29.598-5.791 6.847-14.258 12.654-28.208 19.419l-.134.065a1.315 1.315 0 01-1.14 0l-.144-.065c-13.95-6.764-22.394-12.572-28.184-19.42-6.639-7.85-9.775-17.254-9.775-29.597V20.414a1.383 1.383 0 011.385-1.305h2.276c12.416 0 24.247-4.13 34.216-11.983a1.297 1.297 0 011.605-.037c9.969 7.854 21.801 12.02 34.216 12.02h2.277a1.383 1.383 0 011.385 1.305z" fill="#2F80ED"/><path opacity=".5" d="M44.24 46.672A12.039 12.039 0 1032.2 34.633a12.053 12.053 0 0012.04 12.04zm0-10.3a4.75 4.75 0 01-1.022-9.389V26.1a1.297 1.297 0 012.593 0v1.04a4.757 4.757 0 013.179 4.481 1.297 1.297 0 11-2.593 0 2.158 2.158 0 10-2.157 2.157 4.75 4.75 0 011.571 9.232v1.026a1.296 1.296 0 11-2.593 0v-.87a4.757 4.757 0 01-3.728-4.637 1.296 1.296 0 112.593 0 2.158 2.158 0 102.157-2.158z" fill="#2F80ED"/><path d="M43.434 9.763C33.173 17.578 21.087 21.702 8.415 21.702H7.347V45.21c0 11.695 2.953 20.568 9.173 27.923 5.483 6.484 13.592 12.045 26.936 18.55 13.345-6.506 21.42-12.066 26.903-18.55 6.221-7.355 9.162-16.228 9.162-27.923V21.702h-1.069c-12.672 0-24.757-4.125-35.018-11.94zm.806 10.239a14.632 14.632 0 11-14.632 14.631A14.649 14.649 0 0144.24 20.002z" fill="#2F80ED"/><path d="M50.6 58.559v-.001a.806.806 0 00-.814-.658H36.34a.811.811 0 00-.813.665h0l-1.222 6.838s0 0 0 0a.76.76 0 00.181.648h0a.8.8 0 00.633.263h15.888a.787.787 0 00.815-.931s0 0 0 0l-1.223-6.824z" fill="#6CA9FC" stroke="#2F80ED" stroke-width=".2"/><path d="M24.094 75.83h0a.803.803 0 00.633.27h15.889a.79.79 0 00.814-.935s0 0 0 0l-1.222-6.823v-.001a.804.804 0 00-.814-.656H25.948a.81.81 0 00-.813.662h0l-1.222 6.826s0 0 0 0a.782.782 0 00.18.656z" fill="#C1D9FA" stroke="#2F80ED" stroke-width=".2"/><path d="M45.92 68.347h0-.001l-1.222 6.838s0 0 0 0a.764.764 0 00.181.65h0a.8.8 0 00.633.264h15.888a.788.788 0 00.815-.934s0 0 0 0l-1.223-6.823v-.001a.805.805 0 00-.813-.656H46.732a.81.81 0 00-.813.662z" fill="#97BFF6" stroke="#2F80ED" stroke-width=".2"/></svg>