<svg width="110" height="100" fill="none" xmlns="http://www.w3.org/2000/svg"><path d="M55.185 31.912A18.089 18.089 0 1073.302 50a18.124 18.124 0 00-18.117-18.088zm.005 16.756a5.105 5.105 0 011.314 10.038v1.37a1.315 1.315 0 01-2.629 0v-1.371a5.114 5.114 0 01-3.79-4.933 1.314 1.314 0 112.628 0 2.477 2.477 0 102.477-2.477 5.105 5.105 0 01-1.096-10.09v-.843a1.314 1.314 0 012.629 0v.959a5.114 5.114 0 013.572 4.87 1.314 1.314 0 11-2.629 0 2.476 2.476 0 10-2.476 2.476z" fill="#2F80ED"/><path opacity=".5" d="M79.309 55.14a1.344 1.344 0 011.18-1.023l5.804-.565V46.45l-5.884-.567a1.343 1.343 0 01-1.183-1.029 23.93 23.93 0 00-3.463-8.194 1.314 1.314 0 01.083-1.566l3.738-4.509-4.94-4.992-4.5 3.73a1.314 1.314 0 01-1.549.09 24.797 24.797 0 00-8.218-3.466 1.332 1.332 0 01-1.035-1.174l-.566-5.876h-7.114l-.567 5.875a1.35 1.35 0 01-1.032 1.188 23.927 23.927 0 00-8.206 3.45 1.314 1.314 0 01-1.564-.084l-4.504-3.735-5.012 5.003 3.732 4.502a1.314 1.314 0 01.088 1.555 24.916 24.916 0 00-3.475 8.21 1.323 1.323 0 01-1.163 1.023l-5.873.566v7.1l5.873.567a1.33 1.33 0 011.171 1.028 23.93 23.93 0 003.463 8.194 1.314 1.314 0 01-.082 1.567l-3.733 4.502 5.011 5.003 4.504-3.734a1.314 1.314 0 011.55-.09 24.795 24.795 0 008.218 3.467 1.331 1.331 0 011.034 1.174l.567 5.875h7.114l.566-5.875a1.349 1.349 0 011.032-1.188 23.929 23.929 0 008.207-3.45 1.314 1.314 0 011.563.084l4.505 3.735 5.011-5.002-3.733-4.502a1.315 1.315 0 01-.09-1.556 24.917 24.917 0 003.472-8.21zM55.185 70.717A20.716 20.716 0 1175.93 50a20.754 20.754 0 01-20.745 20.717z" fill="#2F80ED"/><path d="M101.253 45.567a1.32 1.32 0 00-1.012-.475 1.312 1.312 0 00-1.011.475l-8.367 10.088a1.38 1.38 0 00.302 2.003c.21.14.456.22.709.227h6.613A45.735 45.735 0 0182.86 86.546C74.808 93.45 64.692 97.39 55.105 97.39c-6.254 0-12.792-1.694-18.906-4.883a46.974 46.974 0 01-16.097-13.812 1.316 1.316 0 00-2.22.061 1.312 1.312 0 00.1 1.49 49.607 49.607 0 0017.002 14.583C41.472 98.212 48.43 100 55.104 100c10.206 0 20.946-4.152 29.467-11.458a48.654 48.654 0 0016.564-30.657h7.472a1.354 1.354 0 001.19-.794 1.376 1.376 0 00-.178-1.436l-8.366-10.088zm-81.558-2.658a1.351 1.351 0 00-1.19-.794h-6.612a45.735 45.735 0 0115.626-28.661C35.571 6.55 45.687 2.61 55.274 2.61c6.254 0 12.792 1.694 18.906 4.883a46.974 46.974 0 0116.097 13.811 1.312 1.312 0 002.22-.06 1.316 1.316 0 00-.1-1.49A49.603 49.603 0 0075.395 5.172C68.907 1.788 61.95 0 55.275 0 45.068 0 34.328 4.152 25.807 11.458A48.656 48.656 0 009.244 42.115H1.772a1.36 1.36 0 00-1.012 2.21l8.367 10.098a1.312 1.312 0 002.023.007l8.368-10.105a1.346 1.346 0 00.177-1.416z" fill="#2F80ED"/></svg>