<svg width="68" height="80" fill="none" xmlns="http://www.w3.org/2000/svg"><path opacity=".3" d="M47.67 7.753h7.093V3.516A3.52 3.52 0 0051.19 0h-.023a3.463 3.463 0 00-3.498 3.514v4.239z" fill="#2F80ED"/><path opacity=".5" d="M37.482 38.879a9.21 9.21 0 109.21-9.21 9.22 9.22 0 00-9.21 9.21zm4.96-1.004a.99.99 0 011.4.007l1.852 1.87 3.852-3.85a.99.99 0 111.4 1.399l-4.555 4.596a1.032 1.032 0 01-.7.33h-.003a1.03 1.03 0 01-.7-.334l-2.553-2.598a1.015 1.015 0 01.007-1.42z" fill="#2F80ED"/><path opacity=".5" d="M14.914 3.278l-.212 39.218c3.183 0 13.382-.021 21.402-.021a10.966 10.966 0 01-.601-3.581c0-.215.008-.296.02-.626H17.859a.99.99 0 010-1.98h17.957c.19-.735.448-1.453.768-2.143H17.859a.99.99 0 010-1.98h19.934a12.21 12.21 0 012.186-2.144h-22.12a.99.99 0 010-1.98h24.599a1.033 1.033 0 01.749.262 9.822 9.822 0 012.483-.56V3.516A5.257 5.257 0 0146.926 0H18.28a3.314 3.314 0 00-3.366 3.278zm28.533 21.63a.99.99 0 01-.99.99H17.86a.99.99 0 010-1.98h24.599a.99.99 0 01.99.99zM30.061 3.177a9.162 9.162 0 11-9.162 9.163 9.172 9.172 0 019.162-9.162z" fill="#2F80ED"/><path d="M30.061 19.523a7.182 7.182 0 10-7.183-7.183 7.19 7.19 0 007.183 7.183zm0-5.948a2.903 2.903 0 01-1.03-5.618v-.452a.99.99 0 011.98 0v.422a2.908 2.908 0 011.955 2.743.99.99 0 11-1.98 0 .926.926 0 10-.925.925 2.904 2.904 0 01.784 5.7v.272a.99.99 0 11-1.98 0v-.422a2.907 2.907 0 01-1.71-2.644.99.99 0 011.98 0 .926.926 0 10.926-.926z" fill="#2F80ED"/><path d="M47.67 27.73c5.608.463 10.246 5.284 10.246 11.148 0 6.169-5.055 11.188-11.224 11.188a11.194 11.194 0 01-9.687-5.602c-9.712 0-23.299-.004-23.299-.004a.994.994 0 01-.701-.297.92.92 0 01-.288-.673l.16-29.634H0v41.897h67.299V13.856h-19.63v13.873z" fill="#2F80ED"/><path opacity=".5" d="M0 57.732h67.299V67.3H0v-9.567zM51.04 78.02h-6.492l-2.458-8.742H25.21l-2.458 8.742H16.26a.99.99 0 000 1.98h34.78a.99.99 0 000-1.98z" fill="#2F80ED"/></svg>