<svg width="68" height="69" fill="none" xmlns="http://www.w3.org/2000/svg"><rect x="1" y="10" width="66" height="58" rx="4" fill="#2F80ED" stroke="#2F80ED" stroke-width="2"/><rect opacity=".5" x="20.429" y="1" width="27.143" height="9" rx="1" stroke="#2F80ED" stroke-width="2"/><path d="M41.385 44.559h0a.81.81 0 00-.278-.48.773.773 0 00-.515-.179H27.531a.778.778 0 00-.516.184.815.815 0 00-.277.481h0l-1.188 6.839s0 0 0 0a.779.779 0 00.177.646h0a.779.779 0 00.617.264h15.434a.75.75 0 00.619-.267.792.792 0 00.176-.663v-.001l-1.188-6.824z" fill="#6CA9FC" stroke="#2F80ED" stroke-width=".2"/><path d="M15.631 61.828h0a.785.785 0 00.618.271h15.435a.753.753 0 00.618-.27.796.796 0 00.176-.664s0 0 0 0l-1.188-6.823h0a.81.81 0 00-.278-.478.772.772 0 00-.515-.179H17.436a.777.777 0 00-.516.182.815.815 0 00-.277.48v.001l-1.188 6.826s0 0 0 0a.8.8 0 00.176.654z" fill="#C1D9FA" stroke="#2F80ED" stroke-width=".2"/><path d="M36.833 54.348h0l-1.188 6.837s0 0 0 0a.783.783 0 00.177.648h0a.78.78 0 00.617.266h15.434a.752.752 0 00.619-.27.796.796 0 00.176-.664s0 0 0 0l-1.188-6.823h0a.81.81 0 00-.278-.479.772.772 0 00-.515-.178H37.626a.777.777 0 00-.516.182.814.814 0 00-.277.48z" fill="#97BFF6" stroke="#2F80ED" stroke-width=".2"/><path d="M34.383 37.788c2.19 0 4.33-.668 6.15-1.92a11.33 11.33 0 004.076-5.114 11.705 11.705 0 00.63-6.583 11.5 11.5 0 00-3.03-5.834 10.974 10.974 0 00-5.667-3.118 10.775 10.775 0 00-6.395.648 11.145 11.145 0 00-4.967 4.197 11.634 11.634 0 00-1.866 6.33c.004 3.02 1.171 5.917 3.246 8.053 2.075 2.136 4.889 3.338 7.823 3.341zm0-20.769c1.801 0 3.562.55 5.06 1.58a9.322 9.322 0 013.354 4.207 9.63 9.63 0 01.518 5.417 9.464 9.464 0 01-2.493 4.8 9.029 9.029 0 01-4.663 2.566 8.865 8.865 0 01-5.261-.534 9.168 9.168 0 01-4.087-3.453 9.572 9.572 0 01-1.535-5.208 9.527 9.527 0 012.67-6.626 8.987 8.987 0 016.437-2.75v.001z" fill="#fff"/><path d="M34.383 31.106a1.61 1.61 0 01-1.154-.492 1.708 1.708 0 01-.478-1.187c0-.268-.103-.525-.287-.714a.966.966 0 00-.694-.296c-.26 0-.51.106-.693.296-.184.19-.288.446-.288.714a3.77 3.77 0 00.794 2.316 3.586 3.586 0 002.027 1.296v.727c0 .268.103.525.287.714a.962.962 0 001.387 0c.184-.189.287-.446.287-.714v-.85c.8-.288 1.476-.86 1.907-1.612a3.79 3.79 0 00.447-2.498A3.724 3.724 0 0036.7 26.6a3.532 3.532 0 00-2.317-.872c-.323 0-.639-.099-.907-.283a1.67 1.67 0 01-.6-.754 1.725 1.725 0 01-.094-.97c.063-.326.219-.625.447-.86s.519-.395.835-.46c.317-.065.645-.032.943.095.298.128.553.343.732.62.18.275.275.6.275.932 0 .268.103.525.287.714.184.19.434.296.694.296.26 0 .51-.107.693-.296.184-.19.288-.446.288-.714a3.777 3.777 0 00-.714-2.21 3.6 3.6 0 00-1.854-1.335V19.8c0-.268-.103-.524-.287-.714a.967.967 0 00-.694-.295c-.26 0-.51.106-.693.295-.184.19-.288.446-.288.714v.677a3.6 3.6 0 00-2.052 1.52 3.785 3.785 0 00-.572 2.537 3.732 3.732 0 001.194 2.295 3.538 3.538 0 002.367.918c.432 0 .847.177 1.153.492.306.315.478.742.478 1.187 0 .446-.172.873-.478 1.188a1.608 1.608 0 01-1.153.492z" fill="#C1D9FA"/></svg>