<svg width="68" height="68" fill="none" xmlns="http://www.w3.org/2000/svg"><path d="M33.996 21.7c-2.221.004-4.392.729-6.238 2.083-1.845 1.354-3.283 3.276-4.13 5.524a13.386 13.386 0 00-.633 7.105c.436 2.384 1.508 4.574 3.08 6.293 1.572 1.718 3.574 2.887 5.753 3.36 2.18.473 4.438.229 6.49-.703 2.053-.931 3.806-2.508 5.04-4.53 1.234-2.023 1.893-4.4 1.893-6.832-.006-3.263-1.194-6.391-3.304-8.697-2.11-2.306-4.97-3.602-7.95-3.603zM34 33.094c.77 0 1.514.307 2.092.863a3.58 3.58 0 011.053 2.158 3.73 3.73 0 01-.51 2.383c-.428.7-1.074 1.205-1.818 1.422v.932a.938.938 0 01-.24.632.782.782 0 01-.577.261.782.782 0 01-.577-.261.938.938 0 01-.24-.632v-.932a3.177 3.177 0 01-1.696-1.24 3.695 3.695 0 01-.658-2.115.94.94 0 01.239-.632.782.782 0 01.577-.261c.217 0 .425.094.578.261a.94.94 0 01.239.632c0 .333.09.659.259.936.17.277.41.493.69.62.282.128.591.161.89.096.298-.065.572-.225.787-.46a1.74 1.74 0 00.421-.863 1.82 1.82 0 00-.087-.973 1.66 1.66 0 00-.567-.756 1.446 1.446 0 00-.855-.284 3.022 3.022 0 01-2.118-.888 3.592 3.592 0 01-1.034-2.209 3.72 3.72 0 01.577-2.4c.457-.695 1.131-1.18 1.895-1.364v-.573c0-.237.086-.465.24-.632a.782.782 0 01.576-.262c.217 0 .425.094.578.262a.938.938 0 01.239.632v.651a3.204 3.204 0 011.603 1.26c.4.595.615 1.313.616 2.052a.938.938 0 01-.24.631.782.782 0 01-.577.262.783.783 0 01-.577-.261.938.938 0 01-.24-.632 1.8 1.8 0 00-.258-.936 1.578 1.578 0 00-.691-.62 1.415 1.415 0 00-.889-.096 1.503 1.503 0 00-.788.46 1.74 1.74 0 00-.42.863c-.06.327-.03.666.087.973.116.308.313.571.566.756.254.185.551.284.855.284z" fill="#2F80ED"/><path opacity=".5" d="M48.983 37.495a.931.931 0 01.264-.476.8.8 0 01.469-.22l3.605-.384v-4.83l-3.655-.384a.8.8 0 01-.47-.22.933.933 0 01-.265-.48 17.128 17.128 0 00-2.15-5.572.958.958 0 01.05-1.066l2.322-3.065-3.068-3.395-2.795 2.537a.763.763 0 01-.962.061 14.723 14.723 0 00-5.106-2.357.817.817 0 01-.44-.285.95.95 0 01-.203-.514l-.352-3.995h-4.42l-.351 3.995a.963.963 0 01-.202.517.829.829 0 01-.44.29A14.206 14.206 0 0025.718 20a.764.764 0 01-.972-.057l-2.798-2.54-3.113 3.401 2.318 3.062a.959.959 0 01.055 1.057 17.83 17.83 0 00-2.159 5.583.92.92 0 01-.258.476.788.788 0 01-.464.22l-3.649.385v4.828l3.649.385a.793.793 0 01.467.221c.13.126.222.293.26.479a17.126 17.126 0 002.152 5.571.957.957 0 01-.052 1.066l-2.319 3.062 3.113 3.401 2.798-2.539a.764.764 0 01.962-.061 14.724 14.724 0 005.106 2.358c.17.041.325.141.44.284a.95.95 0 01.203.514l.352 3.995h4.42l.351-3.995a.963.963 0 01.202-.517.828.828 0 01.44-.29A14.208 14.208 0 0042.317 48a.764.764 0 01.972.057l2.798 2.54 3.113-3.401-2.32-3.062a.959.959 0 01-.056-1.058 17.839 17.839 0 002.158-5.582zM33.996 48.087c-2.544-.004-5.03-.833-7.145-2.383-2.114-1.55-3.76-3.752-4.732-6.327a15.33 15.33 0 01-.725-8.137c.499-2.732 1.726-5.24 3.526-7.208 1.8-1.968 4.094-3.308 6.59-3.85a11.84 11.84 0 017.433.805c2.35 1.067 4.36 2.872 5.773 5.189 1.413 2.316 2.168 5.039 2.168 7.824-.006 3.737-1.367 7.32-3.783 9.96-2.416 2.642-5.69 4.126-9.105 4.127z" fill="#2F80ED"/><path d="M62.615 30.986a.83.83 0 00-.281-.239.76.76 0 00-.695 0 .83.83 0 00-.28.239l-5.199 6.86a1.018 1.018 0 00-.11.977.9.9 0 00.298.385.8.8 0 00.44.154h4.108c-.935 7.582-4.391 14.521-9.707 19.49-5.002 4.694-11.286 7.373-17.242 7.373-3.885 0-7.947-1.152-11.745-3.32-3.944-2.255-7.364-5.468-10-9.392a.857.857 0 00-.232-.25.747.747 0 00-.63-.121.786.786 0 00-.297.148.87.87 0 00-.22.264.974.974 0 00-.086.694.96.96 0 00.148.319c2.784 4.144 6.397 7.536 10.562 9.917 4.03 2.3 8.353 3.516 12.5 3.516 6.34 0 13.011-2.823 18.305-7.792 5.663-5.32 9.328-12.745 10.29-20.846h4.641a.79.79 0 00.44-.154.903.903 0 00.3-.386 1.018 1.018 0 00-.111-.977l-5.197-6.86zM11.95 29.178a.903.903 0 00-.3-.386.791.791 0 00-.44-.154H7.102c.936-7.582 4.392-14.521 9.708-19.49 5.002-4.694 11.286-7.373 17.242-7.373 3.885 0 7.946 1.152 11.745 3.32 3.943 2.255 7.364 5.468 10 9.392.06.1.14.185.232.25a.747.747 0 00.63.121.786.786 0 00.297-.148.872.872 0 00.22-.264.953.953 0 00.085-.694.928.928 0 00-.148-.319C54.33 9.29 50.717 5.897 46.551 3.516 42.521 1.216 38.2 0 34.051 0c-6.339 0-13.01 2.823-18.304 7.792-5.664 5.32-9.329 12.745-10.29 20.846H.815a.796.796 0 00-.44.155.907.907 0 00-.298.384 1.003 1.003 0 00.11.965l5.198 6.866a.83.83 0 00.28.24.755.755 0 00.694.003.828.828 0 00.282-.238l5.198-6.872a.993.993 0 00.11-.963z" fill="#2F80ED"/></svg>