<svg width="68" height="100" fill="none" xmlns="http://www.w3.org/2000/svg"><path opacity=".3" d="M0 79.486h68V17.093H0v62.392zm57.208-45.021l5.118-4.278a1.56 1.56 0 01.498-.285 1.8 1.8 0 011.184-.007c.188.064.359.16.502.28.144.12.257.262.335.42a1.1 1.1 0 01-.008.989c-.08.156-.196.297-.342.416l-5.118 4.278a1.584 1.584 0 01-.498.278 1.797 1.797 0 01-1.174 0 1.582 1.582 0 01-.497-.278 1.293 1.293 0 01-.333-.416 1.101 1.101 0 01-.117-.49c0-.169.04-.336.117-.491a1.29 1.29 0 01.333-.416zm-12.52-6.016l2.573-5.655c.07-.159.178-.304.316-.428.138-.123.304-.223.489-.293a1.807 1.807 0 011.179-.03c.188.06.362.15.508.267.148.117.265.256.348.41a1.096 1.096 0 01.028.985l-2.575 5.656c-.07.159-.177.305-.315.429a1.557 1.557 0 01-.489.295 1.806 1.806 0 01-1.18.031 1.604 1.604 0 01-.51-.268 1.312 1.312 0 01-.348-.412 1.097 1.097 0 01-.025-.987zM32.21 20.512c0-.34.161-.666.449-.906a1.7 1.7 0 011.084-.376c.407 0 .797.135 1.085.376.288.24.45.566.45.906v5.983c0 .34-.162.666-.45.907-.288.24-.678.375-1.085.375a1.7 1.7 0 01-1.084-.375c-.288-.24-.45-.567-.45-.907v-5.983zm-15.987 2.344a1.81 1.81 0 011.174-.029c.38.121.687.363.853.673l2.964 5.52a1.093 1.093 0 01.046.988c-.07.16-.179.306-.318.43a1.56 1.56 0 01-.491.293 1.806 1.806 0 01-1.183.026 1.598 1.598 0 01-.509-.272 1.306 1.306 0 01-.344-.415l-2.963-5.52a1.096 1.096 0 01-.034-.981c.07-.157.179-.301.317-.424.138-.122.304-.22.488-.29zM14.827 63.46h5.238c-2.833-2.313-4.778-5.28-5.585-8.52-.807-3.241-.44-6.61 1.054-9.675 1.494-3.066 4.047-5.69 7.334-7.538 3.287-1.847 7.158-2.833 11.118-2.833s7.831.986 11.118 2.833c3.287 1.848 5.84 4.472 7.334 7.538 1.494 3.066 1.86 6.434 1.054 9.675-.807 3.24-2.752 6.207-5.585 8.52h5.01c.407 0 .797.135 1.085.376.287.24.45.566.45.906 0 .34-.163.666-.45.907a1.7 1.7 0 01-1.085.375h-38.09c-.407 0-.797-.135-1.085-.375-.287-.24-.449-.567-.449-.907 0-.34.162-.666.45-.906.287-.24.677-.376 1.084-.376zm-11.45-33.2c.288-.24.678-.375 1.084-.375.407 0 .797.134 1.085.375l5.119 4.278c.283.241.442.566.44.904a1.186 1.186 0 01-.45.902 1.692 1.692 0 01-1.078.375 1.702 1.702 0 01-1.082-.368l-5.118-4.278c-.288-.24-.45-.567-.45-.907 0-.34.162-.666.45-.906z" fill="#2F80ED"/><path opacity=".5" d="M34 94.389c2.17 0 3.93-1.471 3.93-3.285 0-1.815-1.76-3.285-3.93-3.285s-3.93 1.47-3.93 3.285c0 1.814 1.76 3.285 3.93 3.285z" fill="#2F80ED"/><path d="M0 92.66c.006.971.241 1.933.693 2.829a7.47 7.47 0 001.94 2.39 9.14 9.14 0 002.89 1.585 10.36 10.36 0 003.395.535h50.164a10.36 10.36 0 003.396-.535 9.14 9.14 0 002.89-1.585 7.47 7.47 0 001.94-2.39 6.349 6.349 0 00.692-2.83V82.051H0V92.66zm34-7.404c1.384 0 2.737.343 3.888.986 1.15.643 2.048 1.556 2.577 2.625a4.964 4.964 0 01.399 3.38c-.27 1.134-.937 2.177-1.916 2.995-.978.817-2.225 1.375-3.583 1.6a8.283 8.283 0 01-4.043-.332c-1.279-.443-2.372-1.193-3.14-2.155-.77-.962-1.18-2.093-1.18-3.25.002-1.55.74-3.037 2.052-4.134 1.312-1.096 3.09-1.713 4.946-1.715zM59.082 0H8.918a10.365 10.365 0 00-3.396.536 9.139 9.139 0 00-2.89 1.585 7.47 7.47 0 00-1.94 2.39A6.349 6.349 0 000 7.341v7.19h68V7.34a6.349 6.349 0 00-.693-2.83 7.47 7.47 0 00-1.94-2.39 9.139 9.139 0 00-2.89-1.585A10.364 10.364 0 0059.083 0zM42.879 7.906H25.121c-.202 0-.401-.033-.587-.097a1.584 1.584 0 01-.498-.278 1.293 1.293 0 01-.332-.416 1.102 1.102 0 01-.117-.49c0-.17.04-.336.117-.491.077-.156.19-.297.332-.416.142-.12.312-.214.498-.278.186-.065.385-.098.587-.098h17.758c.407 0 .797.135 1.085.376.288.24.45.566.45.906 0 .34-.162.666-.45.907-.288.24-.678.375-1.085.375zM25.006 63.461h7.891a1.399 1.399 0 01-.504-.462 1.119 1.119 0 01-.183-.606v-1.317c-1.303-.322-2.447-.987-3.262-1.897-.814-.91-1.255-2.015-1.257-3.15 0-.34.161-.667.449-.907.288-.24.678-.376 1.085-.376a1.7 1.7 0 011.084.376c.288.24.45.566.45.906 0 .534.189 1.056.543 1.5.355.443.86.789 1.45.993a3.82 3.82 0 001.865.154 3.465 3.465 0 001.653-.739c.451-.377.759-.858.883-1.381a2.29 2.29 0 00-.183-1.56 2.875 2.875 0 00-1.19-1.21 3.694 3.694 0 00-1.793-.455c-1.514 0-2.978-.456-4.122-1.285-1.145-.829-1.893-1.975-2.11-3.227-.215-1.253.117-2.529.935-3.594.818-1.064 2.068-1.847 3.52-2.204v-1.14c0-.34.162-.666.45-.906a1.7 1.7 0 011.084-.376c.407 0 .797.135 1.085.376.288.24.45.566.45.906v1.037c1.413.249 2.682.897 3.593 1.834.911.938 1.41 2.109 1.411 3.317 0 .34-.162.666-.45.906a1.7 1.7 0 01-1.084.376c-.407 0-.797-.136-1.084-.376-.288-.24-.45-.566-.45-.906 0-.534-.189-1.056-.544-1.5a3.174 3.174 0 00-1.449-.994 3.82 3.82 0 00-1.865-.153 3.465 3.465 0 00-1.653.738 2.597 2.597 0 00-.884 1.382 2.29 2.29 0 00.184 1.559c.244.493.658.914 1.19 1.21.53.297 1.154.456 1.793.456 1.557 0 3.06.482 4.217 1.354 1.156.872 1.886 2.07 2.046 3.366.16 1.295-.259 2.593-1.177 3.645-.918 1.051-2.27 1.781-3.795 2.048v1.214c0 .211-.063.42-.182.606-.12.187-.294.345-.505.462h8.377c3.093-1.628 5.469-4.052 6.77-6.907 1.3-2.855 1.456-5.986.443-8.92-1.014-2.936-3.141-5.516-6.062-7.353-2.921-1.836-6.477-2.83-10.132-2.83-3.655 0-7.211.994-10.132 2.83-2.92 1.837-5.049 4.417-6.062 7.352-1.014 2.935-.858 6.066.443 8.921 1.301 2.855 3.677 5.28 6.77 6.907z" fill="#2F80ED"/></svg>