<svg width="134" height="26" fill="none" xmlns="http://www.w3.org/2000/svg"><path d="M4.1 14.975c0 4.9.025 7.4-1.875 9.325-.5.5-.875.775-1.2.95-.425.225-.55.325-.55.45s.1.2.2.2c.125 0 .325-.05.5-.15.525-.25.925-.45 1.25-.65 2.4-1.475 3.725-3.2 4.25-4.725.5-1.4.6-3 .6-4.425 0-1.25-.075-2.45-.075-3.525V7.8c0-3.8 0-4.5.05-5.3.05-.875.25-1.3.925-1.425.3-.05.45-.075.725-.075.3 0 .45-.05.45-.225S9.175.55 8.825.55c-.975 0-2.55.075-3.15.075-.65 0-2.225-.075-3.55-.075-.375 0-.55.05-.55.225S1.725 1 2 1c.35 0 .775.025.975.075C3.8 1.25 4 1.65 4.05 2.5c.05.8.05 1.5.05 5.3v7.175zm7.1 1.975c-.124.85-.324 1.825-1.024 1.975-.376.075-.55.075-.75.075-.25 0-.4.05-.4.175 0 .225.2.275.45.275.8 0 2-.075 2.474-.075.45 0 1.575.075 2.626.075.374 0 .6-.05.6-.275 0-.125-.175-.175-.376-.175-.25 0-.6-.025-1.05-.125-.425-.1-.75-.325-.75-.8 0-.4.025-.725.075-1.175l1.3-9.95h.1c.876 1.875 2.376 5.025 2.6 5.55.3.7 2.276 4.525 2.876 5.675.4.75.65 1.25.875 1.25.224 0 .35-.225.924-1.4l5.45-11.35h.1l1.5 11c.1.7.026 1.025-.125 1.075-.175.075-.274.15-.274.275 0 .15.15.225.724.275 1 .075 4.45.15 5.075.15.35 0 .65-.075.65-.275 0-.15-.175-.175-.4-.175-.325 0-.825-.025-1.55-.25-.75-.225-1-.95-1.224-2.525L29.4.775C29.326.25 29.175 0 28.95 0c-.226 0-.35.2-.55.6l-6.8 14.275-6.825-14.1C14.45.125 14.3 0 14.1 0c-.2 0-.35.225-.426.65L11.2 16.95zm31.62-4.75c0 2.3 0 4.275-.125 5.325-.1.725-.225 1.275-.725 1.375-.225.05-.525.1-.9.1-.3 0-.4.075-.4.2 0 .175.175.25.5.25.5 0 1.15-.05 1.725-.05.6-.025 1.15-.025 1.425-.025.375 0 1.125.025 1.875.075.725.025 1.45.075 1.75.075 4.6 0 6.675-2.775 6.675-5.45 0-2.925-2.5-4.7-4.55-5.4 1.375-1.1 2.55-2.325 2.55-4.375 0-1.325-.8-3.75-5.325-3.75-.85 0-1.825.075-3.05.075-.5 0-2.075-.075-3.4-.075-.375 0-.55.05-.55.225s.15.225.425.225c.35 0 .775.025.975.075.825.175 1.025.575 1.075 1.425.05.8.05 1.5.05 5.3v4.4zm3-10.15c0-.275.05-.375.225-.425.25-.05.475-.05.825-.05 2.15 0 3.125 2.2 3.125 3.875 0 1.225-.375 2.125-1.025 2.65-.425.375-.975.475-1.8.475-.575 0-.95-.025-1.175-.075-.1-.025-.175-.075-.175-.275V2.05zm5.725 13.15c0 2.6-1.9 3.2-3.025 3.2-.575 0-1.15-.025-1.825-.3-.8-.325-.875-.75-.875-2.4V9.775c0-.125.05-.175.15-.175.375 0 .625 0 1.075.025.975.05 1.55.225 2.075.6 1.9 1.325 2.425 3.425 2.425 4.975zm5.521-2.165c0 2.9.76 4.38 1.78 5.3 1.46 1.32 3.38 1.38 4.44 1.38 1.3 0 2.74-.22 4.16-1.44 1.68-1.44 1.9-3.8 1.9-6.02v-2.14c0-3.04 0-3.6.04-4.24.04-.7.2-1.04.74-1.14.24-.04.36-.06.58-.06.24 0 .36-.04.36-.18 0-.14-.14-.18-.42-.18-.78 0-2.04.06-2.28.06-.02 0-1.28-.06-2.3-.06-.28 0-.42.04-.42.18 0 .14.12.18.34.18.22 0 .56.02.72.06.66.14.82.46.86 1.14.04.64.04 1.2.04 4.24v2.5c0 2.06-.06 3.86-1.16 4.96-.8.8-1.88 1.08-2.76 1.08-.68 0-1.6-.08-2.5-.82-.98-.8-1.56-2.02-1.56-4.92v-2.8c0-3.04 0-3.6.04-4.24.04-.7.2-1.04.74-1.14.24-.04.36-.06.58-.06.2 0 .32-.04.32-.18 0-.14-.14-.18-.44-.18-.72 0-1.98.06-2.46.06-.6 0-1.86-.06-2.92-.06-.3 0-.44.04-.44.18 0 .14.12.18.34.18.28 0 .62.02.78.06.66.14.82.46.86 1.14.04.64.04 1.2.04 4.24v2.92zm18.991-2.92c0-3.04 0-3.6.04-4.24.04-.7.2-1.04.74-1.14.24-.04.56-.06.78-.06.24 0 .36-.04.36-.18 0-.14-.14-.18-.42-.18-.78 0-2.24.06-2.72.06-.54 0-1.8-.06-2.74-.06-.3 0-.44.04-.44.18 0 .14.12.18.34.18.26 0 .5.02.66.06.66.14.82.46.86 1.14.04.64.04 1.2.04 4.24v3.52c0 1.84 0 3.42-.1 4.26-.08.58-.18 1.02-.58 1.1-.18.04-.42.08-.72.08-.24 0-.32.06-.32.16 0 .14.14.2.4.2.4 0 .92-.04 1.38-.04.48-.02.92-.02 1.14-.02.82 0 1.54.02 2.44.06.9.02 1.94.06 3.38.06 1.04 0 1.14-.1 1.26-.54.16-.58.3-2.08.3-2.3 0-.24-.02-.34-.16-.34-.16 0-.2.12-.22.3-.04.38-.28.94-.52 1.2-.5.54-1.28.56-2.34.56-1.56 0-2.08-.14-2.42-.44-.42-.36-.42-1.74-.42-4.3v-3.52zm10.709 0c0-3.04 0-3.6.04-4.24.04-.7.2-1.04.74-1.14.24-.04.56-.06.78-.06.24 0 .36-.04.36-.18 0-.14-.14-.18-.42-.18-.78 0-2.24.06-2.72.06-.54 0-1.8-.06-2.74-.06-.3 0-.44.04-.44.18 0 .14.12.18.34.18.26 0 .5.02.66.06.66.14.82.46.86 1.14.04.64.04 1.2.04 4.24v3.52c0 1.84 0 3.42-.1 4.26-.08.58-.18 1.02-.58 1.1-.18.04-.42.08-.72.08-.24 0-.32.06-.32.16 0 .14.14.2.4.2.4 0 .92-.04 1.38-.04.48-.02.92-.02 1.14-.02.82 0 1.54.02 2.44.06.9.02 1.94.06 3.38.06 1.04 0 1.14-.1 1.26-.54.16-.58.3-2.08.3-2.3 0-.24-.02-.34-.16-.34-.16 0-.2.12-.22.3-.04.38-.28.94-.52 1.2-.5.54-1.28.56-2.34.56-1.56 0-2.08-.14-2.42-.44-.42-.36-.42-1.74-.42-4.3v-3.52zm8.21 3.52c0 1.94 0 3.52-.1 4.36-.06.58-.18.92-.58 1-.18.04-.42.08-.72.08-.24 0-.32.06-.32.16 0 .14.14.2.4.2.8 0 2.06-.06 2.52-.06.54 0 1.8.06 3.12.06.22 0 .38-.06.38-.2 0-.1-.1-.16-.32-.16-.3 0-.74-.04-1.02-.08-.6-.08-.74-.44-.8-.98-.08-.86-.08-2.44-.08-4.38v-3.52c0-3.04 0-3.6.04-4.24.04-.7.2-1.04.74-1.14.24-.04.4-.06.6-.06.2 0 .32-.04.32-.2 0-.12-.16-.16-.42-.16-.76 0-1.94.06-2.44.06-.58 0-1.84-.06-2.6-.06-.32 0-.48.04-.48.16 0 .16.12.2.32.2.24 0 .5.02.72.08.44.1.64.44.68 1.12.04.64.04 1.2.04 4.24v3.52zm13.327 6.08c5.08 0 8.28-3.62 8.28-8.2 0-4.58-3.1-7.48-8.08-7.48-6 0-8.26 4.42-8.26 7.84 0 3.54 2.32 7.84 8.06 7.84zm.84-1c-3.84 0-6.14-3.3-6.14-7.46 0-4.98 2.62-6.26 4.92-6.26 3.28 0 5.86 2.78 5.86 7.26 0 5.78-3.24 6.46-4.64 6.46zm11.12-10.4h.06c.36.38 2.58 2.88 4.76 5.04 2.08 2.06 4.64 4.68 5.9 5.88.22.22.46.44.68.44.18 0 .26-.18.26-.62l.22-12.62c.02-1.12.18-1.54.74-1.7.24-.06.4-.06.6-.06.24 0 .36-.06.36-.18 0-.16-.2-.18-.46-.18-.98 0-1.74.06-1.96.06-.42 0-1.38-.06-2.42-.06-.3 0-.52.02-.52.18 0 .12.08.18.32.18.28 0 .76 0 1.06.12.48.2.66.58.68 1.8l.2 8.98h-.1c-.34-.32-3.04-3.2-4.4-4.56-2.92-2.9-5.96-6.16-6.2-6.42-.34-.36-.52-.62-.74-.62-.2 0-.26.28-.26.68l-.18 11.84c-.02 1.74-.1 2.32-.62 2.48-.28.08-.64.1-.9.1-.2 0-.32.04-.32.16 0 .18.18.2.44.2 1.04 0 1.98-.06 2.16-.06.38 0 1.18.06 2.48.06.28 0 .46-.04.46-.2 0-.12-.12-.16-.34-.16-.32 0-.7-.02-1.04-.14-.4-.14-.66-.66-.7-2.22l-.22-8.4z" fill="#333"/></svg>