<svg width="72" height="46" fill="none" xmlns="http://www.w3.org/2000/svg"><path d="M.25 0h71.4v45.46H.27L.25 0z" fill="#fff"/><path d="M71.38 25.284S51.878 39.044 16.15 45.21h55.23V25.284z" fill="#F58220"/><path d="M37.656 11.408c-2.93 0-5.3 2.294-5.3 5.107 0 3.007 2.274 5.242 5.3 5.242 2.948 0 5.299-2.274 5.299-5.184 0-2.89-2.332-5.165-5.3-5.165z" fill="url(#paint0_radial_221_505)"/><path d="M7.535 11.601H4.664v9.944h2.852c1.503 0 2.601-.366 3.546-1.156a4.99 4.99 0 001.811-3.816c0-2.929-2.197-4.972-5.338-4.972zM9.79 19.06c-.617.56-1.407.79-2.66.79h-.52v-6.571h.52c1.253 0 2.024.231 2.66.81.674.597 1.079 1.522 1.079 2.466 0 .963-.405 1.927-1.08 2.505zm5.916-7.459h-1.947v9.944h1.947v-9.944zm4.741 3.816c-1.157-.424-1.503-.713-1.503-1.253 0-.636.616-1.098 1.445-1.098.578 0 1.06.231 1.56.81l1.022-1.33a4.326 4.326 0 00-2.93-1.099c-1.753 0-3.102 1.233-3.102 2.852 0 1.368.617 2.081 2.448 2.737.77.27 1.156.443 1.349.558.385.251.578.617.578 1.022 0 .81-.636 1.407-1.503 1.407-.925 0-1.677-.463-2.12-1.33l-1.253 1.214c.887 1.31 1.966 1.889 3.45 1.889 2.023 0 3.43-1.35 3.43-3.276 0-1.58-.655-2.313-2.871-3.103zm3.488 1.156c0 2.93 2.293 5.203 5.26 5.203.83 0 1.561-.173 2.429-.578v-2.293c-.771.77-1.465 1.098-2.351 1.098-1.947 0-3.354-1.426-3.354-3.43 0-1.908 1.427-3.41 3.257-3.41.925 0 1.62.327 2.428 1.117v-2.313c-.848-.424-1.56-.616-2.39-.616-2.928.019-5.28 2.331-5.28 5.222zm23.414 1.697l-2.66-6.669h-2.12l4.221 10.195h1.04L52.129 11.6h-2.1l-2.679 6.668zm5.666 3.275h5.511V19.87h-3.565v-2.7h3.43v-1.677h-3.43v-2.216h3.565V11.6h-5.511v9.944zm13.2-7.015c0-1.869-1.29-2.929-3.526-2.929h-2.872v9.944h1.947v-4.008h.25l2.679 4.008h2.39l-3.142-4.2c1.465-.29 2.274-1.292 2.274-2.814zm-3.892 1.639h-.56v-3.007h.598c1.214 0 1.87.501 1.87 1.484-.02.983-.675 1.523-1.908 1.523zm5.261-3.835c0-.174-.116-.27-.328-.27h-.29v.867h.213v-.347l.25.347h.25l-.288-.366a.229.229 0 00.192-.231zm-.367.115h-.038v-.231h.038c.097 0 .154.038.154.116 0 .077-.057.115-.154.115z" fill="#000"/><path d="M67.294 11.736a.773.773 0 00-.77.77c0 .425.347.772.77.772a.757.757 0 00.752-.771.77.77 0 00-.752-.77zm0 1.388a.625.625 0 01-.616-.636c0-.347.27-.636.617-.636.327 0 .597.289.597.636 0 .366-.27.636-.597.636zM22.065 24.166l2.602 2.717v-2.582h.366v3.488l-2.601-2.717v2.563h-.367v-3.47z" fill="#000"/><path d="M22.046 24.166v3.507h.443v-2.505c.116.116 2.602 2.717 2.602 2.717v-3.604h-.443v2.525c-.116-.116-2.602-2.717-2.602-2.717v.077zm.058.077c.116.116 2.602 2.717 2.602 2.717v-2.64h.308v3.353c-.116-.115-2.602-2.717-2.602-2.717v2.62h-.308v-3.333zm4.741.057h1.734v.348h-1.35v.983h1.311v.346h-1.31v1.31h1.349v.348h-1.735V24.3z" fill="#000"/><path d="M28.56 24.262h-1.754v3.411h1.792v-.424H27.25v-1.233h1.31v-.405h-1.31v-.925h1.35v-.424h-.04zm-.039.077v.27h-1.349v1.06h1.31v.27h-1.31v1.368h1.349v.27h-1.657V24.32c.077.02 1.6.02 1.657.02zm2.659 3.296h-.366v-2.987h-.81V24.3h1.986v.347h-.81v2.987z" fill="#000"/><path d="M31.99 24.262h-2.023v.424h.809v2.987h.443v-2.987h.81v-.424h-.039zm-.02.077v.27h-.809v2.987h-.308V24.61h-.81v-.27h1.928zm2.506 2.467l1.08-2.679 1.078 2.679.867-2.486h.405l-1.272 3.507-1.079-2.678-1.079 2.678-1.272-3.507h.405l.867 2.486z" fill="#000"/><path d="M35.517 24.108s-.983 2.428-1.041 2.582c-.058-.154-.848-2.428-.848-2.428h-.482l1.33 3.643s1.021-2.544 1.08-2.68c.057.155 1.078 2.68 1.078 2.68l1.33-3.643h-.482s-.79 2.274-.848 2.428a538.388 538.388 0 00-1.079-2.659l-.038.077zm-1.003 2.698s.983-2.447 1.041-2.582c.058.154 1.08 2.678 1.08 2.678s.886-2.505.905-2.563h.328c-.039.097-1.176 3.219-1.234 3.373-.057-.154-1.079-2.679-1.079-2.679s-1.021 2.525-1.08 2.679c-.057-.154-1.194-3.276-1.232-3.372h.327c.02.038.906 2.563.906 2.563l.038-.097zm8.191-.829c0 .964-.79 1.716-1.735 1.716a1.723 1.723 0 01-1.734-1.716c0-.944.79-1.734 1.734-1.734s1.735.77 1.735 1.734zm-3.103-.019c0 .752.617 1.368 1.368 1.368.752 0 1.369-.636 1.369-1.368 0-.751-.598-1.387-1.369-1.387a1.39 1.39 0 00-1.368 1.387z" fill="#000"/><path d="M39.197 25.977c0 .964.79 1.754 1.773 1.754.983 0 1.773-.79 1.773-1.754 0-.963-.79-1.753-1.773-1.753a1.74 1.74 0 00-1.773 1.753zm.077 0a1.71 1.71 0 011.696-1.695c.944 0 1.696.751 1.696 1.695 0 .925-.77 1.677-1.696 1.677a1.682 1.682 0 01-1.696-1.677z" fill="#000"/><path d="M39.563 25.958c0 .79.636 1.407 1.407 1.407s1.407-.636 1.407-1.407c0-.77-.617-1.407-1.407-1.407-.77 0-1.407.636-1.407 1.407zm.078 0c0-.732.597-1.349 1.33-1.349.732 0 1.329.597 1.329 1.35 0 .731-.597 1.348-1.33 1.348-.732 0-1.33-.597-1.33-1.349zm5.049 1.677h-.366V24.3h.481c.636 0 1.214.173 1.214.925 0 .52-.327.867-.828.925l1.06 1.484h-.463l-1.002-1.465h-.096v1.465zm0-1.792h.115c.424 0 .848-.078.848-.598 0-.54-.404-.597-.848-.597h-.115v1.195z" fill="#000"/><path d="M44.324 24.262h-.04v3.411h.444V26.21h.058c0 .019.983 1.445.983 1.445l.482.02h.077s-1.022-1.427-1.06-1.504c.481-.058.81-.424.81-.944 0-.636-.406-.944-1.254-.944h-.5v-.02zm.481.077c.81 0 1.176.29 1.176.887 0 .5-.309.848-.81.886h-.057s.982 1.388 1.06 1.484h-.386c0-.019-.983-1.445-.983-1.445l-.115-.02h-.039v1.465h-.308V24.34h.462z" fill="#000"/><path d="M44.69 24.61h-.04v1.271h.155c.405 0 .886-.077.886-.636 0-.578-.462-.636-.886-.636h-.116zm.115.076c.424 0 .81.039.81.56 0 .5-.405.558-.81.558h-.077v-1.118h.077zm4.799-.386h.5l-1.56 1.562 1.619 1.773h-.52l-1.369-1.523-.096.097v1.445h-.366V24.32h.366v1.426l1.426-1.445z" fill="#000"/><path d="M50.105 24.262h-.52s-1.273 1.272-1.369 1.388v-1.388h-.443v3.411h.443V26.21s.039-.02.058-.039c.038.058 1.349 1.503 1.349 1.503l.54.02h.077s-1.6-1.773-1.658-1.812c.058-.038 1.6-1.58 1.6-1.58h-.077v-.039zm-.097.077l-1.522 1.523s1.484 1.638 1.58 1.754h-.443c0-.02-1.349-1.523-1.349-1.523l-.02-.02-.115.116-.02 1.427h-.307v-3.257h.308v1.484l1.464-1.484c.058-.02.328-.02.424-.02z" fill="#000"/><defs><radialGradient id="paint0_radial_221_505" cx="0" cy="0" r="1" gradientUnits="userSpaceOnUse" gradientTransform="translate(37.652 16.587) scale(5.24153)"><stop offset=".006" stop-color="#FFEFE1"/><stop offset=".097" stop-color="#FFEAD8"/><stop offset=".246" stop-color="#FEDEC1"/><stop offset=".434" stop-color="#FDCA9E"/><stop offset=".653" stop-color="#FAAF72"/><stop offset=".897" stop-color="#F79038"/><stop offset="1" stop-color="#F58220"/></radialGradient></defs></svg>