<svg width="205" height="28" fill="none" xmlns="http://www.w3.org/2000/svg"><path fill-rule="evenodd" clip-rule="evenodd" d="M16.215 24.824l-1.337-1.296c-.878.836-1.714 1.463-2.633 1.923-.878.46-1.964.668-3.176.668a6.654 6.654 0 01-2.759-.585 6.955 6.955 0 01-2.214-1.588 6.915 6.915 0 01-1.463-2.382c-.334-.92-.543-1.88-.543-2.925s.167-2.006.543-2.926c.334-.919.836-1.671 1.463-2.34a6.954 6.954 0 012.214-1.588 6.654 6.654 0 012.76-.585c1.253 0 2.298.25 3.176.71.877.46 1.713 1.045 2.465 1.797l1.38-1.504c-.46-.418-.92-.836-1.38-1.17-.501-.335-1.003-.669-1.588-.92-.585-.25-1.17-.46-1.838-.585a12.088 12.088 0 00-2.215-.209c-1.338 0-2.55.251-3.636.753-1.129.501-2.09 1.17-2.884 2.006-.794.835-1.42 1.838-1.88 2.967C.209 16.173 0 17.385 0 18.68c0 1.296.209 2.508.669 3.678.46 1.128 1.086 2.131 1.88 2.967a8.45 8.45 0 002.842 1.965c1.087.501 2.299.71 3.594.71.836 0 1.588-.084 2.257-.25a12.406 12.406 0 001.88-.628c.585-.292 1.129-.585 1.63-1.003a10.485 10.485 0 001.463-1.295zm10.949-4.304l7.523-10.866h-2.383l-6.101 9.027-6.06-9.027h-2.507l7.522 10.907v7.105h2.006V20.52zm18.43-10.866h-7.648v18.012h7.982c.962 0 1.881-.126 2.675-.335a6.407 6.407 0 002.09-.96 4.332 4.332 0 001.337-1.547 4.8 4.8 0 00.46-2.09c0-.627-.084-1.17-.293-1.63a5.05 5.05 0 00-.836-1.253 5.309 5.309 0 00-1.212-.878c-.46-.25-.96-.46-1.504-.585.376-.167.71-.334 1.045-.585a4.52 4.52 0 00.919-.878c.25-.334.502-.752.669-1.17.167-.46.25-.96.25-1.588 0-.668-.125-1.295-.417-1.88-.293-.544-.67-1.045-1.17-1.421-.502-.376-1.129-.669-1.84-.92-.794-.167-1.587-.292-2.507-.292zm-.293 8.024h-5.307V11.45h5.475c1.295 0 2.256.25 2.967.794.669.543 1.045 1.254 1.045 2.173 0 1.087-.377 1.88-1.17 2.424-.795.585-1.797.836-3.01.836zm.711 8.19h-6.018v-6.393h5.684c1.588 0 2.758.25 3.552.835.794.544 1.212 1.296 1.212 2.299 0 1.045-.376 1.839-1.17 2.424-.794.585-1.88.836-3.26.836zm10.531-8.191v9.989h13.164v-1.84H58.591v-6.31h9.82v-1.838H56.544zm13.039-8.023H56.543v1.839h13.039v-1.84zm19.14 18.012l-5.516-7.355a7.706 7.706 0 001.964-.627 6.023 6.023 0 001.546-1.087 4.3 4.3 0 001.004-1.546c.25-.585.376-1.254.376-2.006 0-.794-.168-1.546-.46-2.215-.293-.669-.752-1.212-1.296-1.713a6.389 6.389 0 00-2.047-1.087c-.794-.25-1.714-.376-2.675-.376h-7.731v18.012h2.047v-6.98h5.14l5.225 7.021h2.423v-.041zm-2.674-12.538c0 .585-.126 1.129-.334 1.588-.251.46-.544.878-.962 1.17a4.392 4.392 0 01-1.462.753 6.52 6.52 0 01-1.84.25h-5.64v-7.355h5.557c1.463 0 2.591.293 3.427.962.836.627 1.254 1.504 1.254 2.632zM109.91 11.2v16.466h-3.134V15.922l.543-.794 2.591-3.928z" fill="#5F5C5D"/><path fill-rule="evenodd" clip-rule="evenodd" d="M117.684 17.134h9.026v2.884h-9.026v4.806h10.322v2.842h-13.457V17.134h3.135z" fill="#2F80ED"/><path fill-rule="evenodd" clip-rule="evenodd" d="M114.549 9.654h13.332v2.883h-13.332V9.654z" fill="#5F5C5D"/><path fill-rule="evenodd" clip-rule="evenodd" d="M136.239 12.58h-5.726V9.653h14.627v2.925h-5.725v15.087h-3.176V12.579zm20.059.751c-3.05 7.146-3.343 7.857-6.101 14.376h-3.26l7.941-18.137h2.925l7.94 18.137H162.4c-2.8-6.603-3.093-7.355-6.102-14.376zm12.538-3.677h3.134v15.17h9.487v2.842h-12.621V9.654zm22.275 18.304c-1.38 0-2.717-.25-4.012-.71-1.254-.46-2.466-1.212-3.511-2.173l1.923-2.257c.877.752 1.755 1.337 2.632 1.755.878.418 1.923.585 3.051.585.961 0 1.755-.209 2.34-.627.585-.418.878-.96.878-1.63v-.041c0-.334-.042-.627-.167-.878a1.98 1.98 0 00-.627-.71c-.293-.21-.71-.418-1.254-.627-.543-.21-1.212-.376-2.048-.585a17.543 17.543 0 01-2.591-.752c-.752-.293-1.379-.627-1.88-1.045a4.407 4.407 0 01-1.17-1.463 5.37 5.37 0 01-.418-2.131v-.042c0-.752.167-1.463.459-2.131.293-.627.711-1.212 1.254-1.63.543-.46 1.17-.794 1.923-1.087a7.815 7.815 0 012.465-.376c1.338 0 2.508.209 3.553.585 1.044.376 2.047.961 2.967 1.672l-1.714 2.382c-.836-.585-1.63-1.045-2.465-1.38-.794-.334-1.63-.459-2.466-.459-.92 0-1.63.209-2.173.627-.502.418-.752.92-.752 1.504v.042c0 .335.041.669.167.92.125.25.334.501.668.71a5.1 5.1 0 001.338.585c.543.21 1.253.376 2.131.585.961.25 1.797.502 2.507.794a7.112 7.112 0 011.839 1.087c.502.418.836.92 1.087 1.463s.376 1.211.376 1.964v.041a5.57 5.57 0 01-.46 2.257c-.334.669-.752 1.254-1.337 1.714a5.404 5.404 0 01-2.006 1.044c-.71.293-1.588.418-2.507.418zM110.579 3.552l-9.528 14.627-5.475-8.525h-3.385v18.012h3.135V14.794l5.641 8.442h.084l1.463-2.09 4.262-6.394 6.394-9.695 1.755 1.003-.626-6.06-2.759 1.254-2.758 1.295 1.797 1.003z" fill="#2F80ED"/><path fill-rule="evenodd" clip-rule="evenodd" d="M201.809 12.036a.845.845 0 00.46-.125c.125-.084.167-.21.167-.377s-.042-.292-.167-.376a.753.753 0 00-.46-.125h-.752v1.003h.752zm-1.296-1.421h1.296c.167 0 .334.042.501.084.126.041.251.125.377.209a.681.681 0 01.167.292c.042.125.083.209.083.334 0 .126 0 .21-.042.335l-.125.25c-.042.084-.125.126-.209.21a2.017 2.017 0 01-.292.125l.794 1.128h-.627l-.711-1.003h-.627v1.003h-.501v-2.967h-.084z" fill="#5F5C5D"/><path fill-rule="evenodd" clip-rule="evenodd" d="M201.642 14.376a2.292 2.292 0 01-2.299-2.298 2.292 2.292 0 012.299-2.299 2.318 2.318 0 012.298 2.299 2.292 2.292 0 01-2.298 2.298zm2.675-2.298a2.693 2.693 0 00-2.675-2.675 2.693 2.693 0 00-2.675 2.675 2.693 2.693 0 002.675 2.674c1.463-.042 2.675-1.212 2.675-2.674z" fill="#5F5C5D"/></svg>