<svg width="61" height="36" fill="none" xmlns="http://www.w3.org/2000/svg"><path d="M36 18c0 9.94-8.06 18-18 18S0 27.94 0 18 8.06 0 18 0s18 8.06 18 18z" fill="#ED1B2E"/><path d="M42.14 0c-4.636 0-8.896 1.754-12.07 4.677A13.05 13.05 0 0028.274 6.6h3.633c.501.584.96 1.253 1.378 1.92h-6.39c-.375.627-.71 1.254-1.043 1.922h8.436c.292.626.543 1.253.752 1.92H25.1a25.772 25.772 0 00-.543 1.922h11.025c.251 1.211.418 2.506.418 3.8 0 2.005-.334 3.926-.919 5.722H25.1c.209.668.46 1.295.752 1.921h8.436c-.293.668-.668 1.295-1.044 1.921h-6.348c.417.669.877 1.295 1.378 1.921h3.633c-.584.543-1.17 1.17-1.837 1.755a17.933 17.933 0 0012.07 4.635c9.939 0 18-8.06 18-18C60.14 8.06 52.078 0 42.14 0z" fill="#FCB131"/><path d="M57.759 28.023a.57.57 0 01.584-.585.57.57 0 01.585.585.57.57 0 01-.584.585.571.571 0 01-.585-.585zm.584.46c.251 0 .46-.21.46-.46s-.209-.46-.46-.46c-.25 0-.459.21-.459.46s.209.46.46.46zm-.083-.21h-.125v-.5h.209c.041 0 .083 0 .125.041.041.042.083.084.083.125 0 .042-.041.126-.083.126l.083.209h-.125l-.084-.21h-.083v.21zm0-.292h.167l.042-.042s0-.041-.042-.041h-.167v.083z" fill="#FCB131"/><path d="M13.782 19.963c-.209-.042-.292-.042-.418-.042-1.127 0-1.67.376-1.67 1.128 0 .46.292.752.71.752.793 0 1.336-.752 1.378-1.838zm1.42 3.3h-1.629l.042-.753c-.501.627-1.17.877-2.046.877-1.045 0-1.796-.835-1.796-2.046 0-1.796 1.253-2.882 3.424-2.882.21 0 .502 0 .794.042.042-.25.083-.334.083-.501 0-.501-.334-.668-1.253-.668-.96 0-1.754.209-2.088.334 0-.125.25-1.67.25-1.67.961-.293 1.63-.377 2.34-.377 1.67 0 2.547.752 2.547 2.172 0 .376-.042.835-.167 1.462-.083 1.17-.46 3.466-.501 4.01zm-6.222-.001H7.015l1.128-7.016-2.506 7.016H4.302l-.167-6.974-1.17 6.974H1.17l1.504-9.104H5.47l.167 5.095 1.712-5.095h3.133l-1.504 9.104zm35.582-3.299c-.21-.042-.293-.042-.418-.042-1.128 0-1.67.376-1.67 1.128 0 .46.292.752.71.752.751 0 1.336-.752 1.378-1.838zm1.42 3.3h-1.63l.043-.753c-.502.627-1.17.877-2.047.877-1.044 0-1.796-.835-1.796-2.046 0-1.796 1.253-2.882 3.425-2.882.209 0 .501 0 .793.042.042-.25.084-.334.084-.501 0-.501-.334-.668-1.253-.668-.96 0-1.754.209-2.088.334.042-.125.292-1.67.292-1.67.96-.293 1.629-.377 2.339-.377 1.67 0 2.547.752 2.547 2.172 0 .376-.041.835-.167 1.462-.125 1.17-.5 3.466-.543 4.01zm-22.093-.126c-.543.167-.96.25-1.42.25-1.003 0-1.545-.584-1.545-1.628 0-.334.125-1.212.25-1.963.125-.71.835-5.054.835-5.054h1.921l-.208 1.128h1.17l-.252 1.796h-1.169c-.209 1.42-.543 3.174-.543 3.383 0 .376.209.543.668.543.21 0 .376-.042.543-.084l-.25 1.629zm5.971-.042a6.473 6.473 0 01-2.004.293c-2.172 0-3.3-1.128-3.3-3.3 0-2.547 1.463-4.385 3.384-4.385 1.587 0 2.63 1.044 2.63 2.673 0 .543-.083 1.086-.25 1.837h-3.884c-.125 1.086.543 1.546 1.67 1.546.71 0 1.337-.126 2.005-.46l-.25 1.796zm-1.127-4.385c0-.167.209-1.337-.919-1.337-.626 0-1.044.46-1.253 1.337h2.172zm-12.362-.501c0 .918.46 1.587 1.504 2.088.793.376.919.5.919.835 0 .46-.335.668-1.128.668a5.326 5.326 0 01-1.754-.292s-.25 1.629-.25 1.712c.459.084.835.167 2.046.209 2.046 0 3.007-.793 3.007-2.464 0-1.002-.418-1.629-1.378-2.088-.836-.376-.92-.46-.92-.794 0-.417.335-.626.961-.626.376 0 .92.042 1.42.125l.293-1.712a12.24 12.24 0 00-1.713-.125c-2.255-.084-3.007 1.085-3.007 2.464zm22.97-2.339c.543 0 1.044.125 1.754.501l.334-1.963c-.292-.125-1.294-.751-2.13-.751-1.294 0-2.422.668-3.174 1.712-1.127-.376-1.587.376-2.171 1.128l-.543.083c.041-.25.083-.501.041-.752h-1.795c-.25 2.297-.669 4.636-1.003 6.933l-.083.501h1.963c.334-2.13.5-3.466.626-4.385l.752-.418c.125-.417.46-.543 1.127-.543a9.133 9.133 0 00-.125 1.504c0 2.422 1.295 3.926 3.425 3.926.543 0 1.002-.084 1.712-.25l.334-2.089c-.668.334-1.17.46-1.67.46-1.128 0-1.838-.836-1.838-2.214 0-1.963 1.002-3.383 2.464-3.383zm16.539-1.712l-.418 2.63c-.543-.71-1.128-1.21-1.88-1.21-1.002 0-1.879.751-2.464 1.837-.835-.167-1.67-.46-1.67-.46.083-.626.083-1.002.083-1.127h-1.795c-.251 2.297-.669 4.636-1.003 6.933l-.083.501h1.962l.627-4.26c.668-.584 1.002-1.127 1.67-1.086a6.418 6.418 0 00-.459 2.423c0 1.837.919 3.09 2.339 3.09.71 0 1.253-.25 1.796-.835l-.084.71h1.838l1.503-9.146H55.88zm-2.423 7.392c-.668 0-1.002-.502-1.002-1.462 0-1.462.626-2.506 1.503-2.506.669 0 1.044.501 1.044 1.462 0 1.462-.668 2.506-1.545 2.506z" fill="#003473"/><path d="M9.564 22.72H7.6l1.128-7.017-2.506 7.016H4.886l-.167-6.974-1.169 6.974H1.712l1.546-9.104h2.798l.083 5.638 1.88-5.638h3.048l-1.503 9.104zm4.803-3.3c-.21-.042-.293-.042-.418-.042-1.127 0-1.67.376-1.67 1.128 0 .459.292.751.71.751.751 0 1.336-.752 1.378-1.837zm1.42 3.299h-1.63l.043-.752c-.502.627-1.17.877-2.047.877-1.044 0-1.796-.835-1.796-2.046 0-1.796 1.253-2.84 3.425-2.84.209 0 .501 0 .793.042.042-.25.084-.334.084-.501 0-.502-.334-.669-1.253-.669-.96 0-1.754.21-2.088.334 0-.125.25-1.67.25-1.67.961-.292 1.63-.376 2.34-.376 1.67 0 2.547.752 2.547 2.172 0 .376-.042.835-.167 1.462-.084 1.127-.46 3.424-.501 3.967zm26.185-8.854l-.334 1.963c-.71-.334-1.21-.501-1.754-.501-1.462 0-2.464 1.42-2.464 3.424 0 1.379.668 2.214 1.838 2.214.5 0 1.002-.167 1.67-.46l-.334 2.089c-.71.208-1.17.25-1.712.25-2.088 0-3.425-1.503-3.425-3.926 0-3.257 1.796-5.554 4.385-5.554.836 0 1.838.376 2.13.501zm3.133 5.555c-.21-.042-.293-.042-.418-.042-1.128 0-1.67.376-1.67 1.128 0 .459.292.751.71.751.793 0 1.378-.752 1.378-1.837zm1.42 3.299h-1.63l.042-.752c-.5.627-1.169.877-2.046.877-1.044 0-1.796-.835-1.796-2.046 0-1.796 1.253-2.84 3.425-2.84.209 0 .501 0 .793.042.042-.25.084-.334.084-.501 0-.502-.334-.669-1.253-.669-.96 0-1.754.21-2.088.334 0-.125.25-1.67.25-1.67.96-.292 1.63-.376 2.34-.376 1.67 0 2.547.752 2.547 2.172 0 .376-.042.835-.167 1.462-.084 1.127-.418 3.424-.502 3.967zm-22.051-.125c-.543.167-.961.25-1.42.25-1.003 0-1.546-.585-1.546-1.629 0-.334.126-1.21.25-1.962.126-.71.836-5.054.836-5.054h1.921l-.209 1.128h1.003l-.25 1.754h-1.003c-.209 1.42-.543 3.174-.543 3.383 0 .376.209.543.668.543.209 0 .376-.042.543-.084l-.25 1.67zm5.93-.042a6.473 6.473 0 01-2.005.292c-2.172 0-3.3-1.127-3.3-3.3 0-2.547 1.463-4.384 3.384-4.384 1.587 0 2.63 1.044 2.63 2.673 0 .543-.083 1.086-.25 1.837H26.98c-.125 1.086.543 1.545 1.67 1.545.71 0 1.337-.125 2.005-.459l-.25 1.796zm-1.086-4.385c0-.167.209-1.337-.919-1.337-.626 0-1.044.46-1.253 1.337h2.172zm-12.362-.501c0 .918.46 1.587 1.504 2.088.793.376.918.5.918.835 0 .46-.334.668-1.127.668a5.326 5.326 0 01-1.754-.292s-.25 1.629-.25 1.712c.459.084.834.167 2.046.209 2.046 0 3.006-.793 3.006-2.464 0-1.002-.417-1.629-1.378-2.088-.835-.376-.918-.46-.918-.794 0-.417.334-.626.96-.626.376 0 .919.042 1.42.125l.292-1.712a12.24 12.24 0 00-1.712-.125c-2.255-.042-3.007 1.085-3.007 2.464zm39.926 5.054h-1.838l.084-.71c-.543.584-1.086.834-1.796.834-1.42 0-2.339-1.21-2.339-3.09 0-2.464 1.462-4.552 3.174-4.552.752 0 1.337.292 1.88 1.002l.417-2.631h1.921l-1.503 9.146zM54 21.006c.919 0 1.545-1.044 1.545-2.506 0-.96-.376-1.462-1.044-1.462-.877 0-1.503 1.044-1.503 2.506 0 .96.334 1.462 1.002 1.462zm-5.68-5.721c-.25 2.297-.668 4.636-1.002 6.933l-.084.501h1.963c.71-4.552.877-5.43 1.963-5.304.167-.919.501-1.754.752-2.171-.835-.168-1.295.292-1.88 1.169.042-.376.126-.752.126-1.128H48.32zm-16.079 0c-.25 2.297-.668 4.636-1.002 6.933l-.084.501h1.963c.71-4.552.877-5.43 1.963-5.304.167-.919.501-1.754.752-2.171-.835-.168-1.295.292-1.88 1.169.042-.376.126-.752.126-1.128h-1.838zm25.518 6.849a.57.57 0 01.584-.584.57.57 0 01.585.584.57.57 0 01-.584.585.571.571 0 01-.585-.585zm.543.46c.25 0 .46-.209.46-.46 0-.25-.21-.459-.46-.459s-.46.209-.46.46c.042.25.25.459.46.459zm-.042-.209h-.125v-.501h.209c.041 0 .083 0 .125.042.041.041.083.083.083.125 0 .042-.041.125-.083.125l.083.21h-.125l-.084-.21h-.083v.21zm0-.292h.167l.042-.042s0-.042-.042-.042h-.167v.084z" fill="#fff"/></svg>