<svg width="106" height="28" fill="none" xmlns="http://www.w3.org/2000/svg"><path fill-rule="evenodd" clip-rule="evenodd" d="M13.447 0c3.438 0 6.587 1.863 6.167 6.508-.525 5.51-3.464 8.555-8.135 8.581H7.41c-.577 0-.866.472-1.023 1.47L5.6 21.571c-.131.76-.499 1.128-1.076 1.128H.72c-.604 0-.814-.394-.683-1.26l3.15-20.074C3.344.367 3.71 0 4.394 0h9.053zM7.28 10.733h3.097c1.915-.079 3.201-1.417 3.332-3.805.08-1.496-.918-2.546-2.519-2.546l-2.913.027-.997 6.324zM29.9 21.125c.342-.315.71-.473.657-.08l-.131.92c-.053.472.13.734.577.734h3.359c.577 0 .84-.236.97-1.102l2.074-13.016c.105-.656-.053-.97-.551-.97h-3.7c-.342 0-.499.183-.578.708l-.13.813c-.08.42-.263.499-.447.079-.63-1.496-2.23-2.152-4.461-2.1-5.196.106-8.686 4.042-9.054 9.106-.288 3.858 2.493 6.928 6.194 6.928 2.676 0 3.883-.787 5.222-2.02zm-2.807-1.995c-2.23 0-3.779-1.784-3.464-3.962.315-2.178 2.414-3.963 4.645-3.963 2.23 0 3.779 1.785 3.464 3.963-.342 2.178-2.415 3.962-4.645 3.962zM44.019 7.584h-3.412c-.708 0-.997.525-.76 1.18l4.224 12.413-4.172 5.878c-.341.499-.079.945.42.945h3.83c.578 0 .84-.157 1.13-.551L58.293 8.765c.394-.578.21-1.181-.446-1.181h-3.621c-.63 0-.866.236-1.234.76l-5.432 7.873-2.414-7.898c-.131-.499-.472-.735-1.128-.735z" fill="#113984"/><path fill-rule="evenodd" clip-rule="evenodd" d="M71.888 0c3.437 0 6.586 1.863 6.166 6.508-.525 5.51-3.464 8.555-8.135 8.581h-4.067c-.578 0-.866.472-1.024 1.47l-.787 5.012c-.131.76-.498 1.128-1.076 1.128h-3.779c-.603 0-.813-.394-.682-1.26l3.123-20.048c.157-.997.525-1.365 1.207-1.365h9.053V0zM65.72 10.733h3.096c1.916-.079 3.202-1.417 3.333-3.805.079-1.496-.919-2.546-2.52-2.546l-2.912.027-.997 6.324zm22.62 10.392c.341-.315.709-.473.656-.08l-.131.92c-.053.472.131.734.577.734h3.36c.576 0 .839-.236.97-1.102l2.073-13.016c.105-.656-.052-.97-.55-.97h-3.7c-.342 0-.5.183-.578.708l-.132.813c-.078.42-.262.499-.446.079-.63-1.496-2.23-2.152-4.46-2.1-5.197.106-8.687 4.042-9.054 9.106-.289 3.91 2.52 6.98 6.193 6.98 2.677-.052 3.858-.839 5.222-2.072zm-2.834-1.995c-2.23 0-3.779-1.784-3.464-3.962.315-2.178 2.414-3.963 4.645-3.963 2.23 0 3.779 1.785 3.464 3.963-.315 2.178-2.415 3.962-4.645 3.962zm15.535 3.595h-3.884c-.315 0-.525-.236-.472-.524L100.097.577c.053-.288.342-.525.656-.525h3.884c.315 0 .525.237.473.525l-3.412 21.624c-.052.288-.367.524-.656.524z" fill="#009EE3"/></svg>