<svg width="82" height="80" fill="none" xmlns="http://www.w3.org/2000/svg"><rect x="1" y="11.435" width="79.159" height="67.565" rx="4" fill="#2F80ED" stroke="#2F80ED" stroke-width="2"/><rect opacity=".5" x="24.188" y="1" width="32.783" height="10.754" rx="1" stroke="#2F80ED" stroke-width="2"/><path d="M49.375 51.665h0a.919.919 0 00-.927-.75h-15.59a.925.925 0 00-.927.757h0l-1.417 7.929s0 0 0 0a.867.867 0 00.207.738h0a.91.91 0 00.72.3h18.423a.895.895 0 00.928-1.062s0 0 0 0l-1.417-7.912z" fill="#6CA9FC" stroke="#2F80ED" stroke-width=".2"/><path d="M18.671 71.676h0a.915.915 0 00.722.307h18.422a.9.9 0 00.928-1.065s0 0 0 0l-1.417-7.91v-.001a.917.917 0 00-.927-.748H20.81a.923.923 0 00-.926.755h0l-1.418 7.914s0 0 0 0a.89.89 0 00.206.748z" fill="#C1D9FA" stroke="#2F80ED" stroke-width=".2"/><path d="M43.98 63.014h0l-1.418 7.928s0 0 0 0a.87.87 0 00.207.74h0a.91.91 0 00.721.3h18.422a.899.899 0 00.929-1.063v-.001l-1.418-7.91v-.001a.918.918 0 00-.927-.748h-15.59a.924.924 0 00-.926.755z" fill="#97BFF6" stroke="#2F80ED" stroke-width=".2"/><path d="M41.037 43.812a13.21 13.21 0 10-13.21-13.21 13.226 13.226 0 0013.21 13.21zm0-24.08a10.869 10.869 0 11-10.87 10.87 10.882 10.882 0 0110.87-10.87z" fill="#fff"/><path d="M41.037 36.065a1.95 1.95 0 01-1.948-1.947 1.17 1.17 0 00-2.341 0 4.295 4.295 0 003.366 4.187v.844a1.17 1.17 0 102.341 0v-.985a4.288 4.288 0 00-1.418-8.335 1.948 1.948 0 111.947-1.947 1.17 1.17 0 102.341 0 4.295 4.295 0 00-3.065-4.11v-.815a1.17 1.17 0 10-2.34 0v.785a4.288 4.288 0 001.117 8.428 1.947 1.947 0 010 3.895z" fill="#C1D9FA"/></svg>