<svg width="70" height="70" fill="none" xmlns="http://www.w3.org/2000/svg"><path d="M46.344 11.894l-8.2-8.24v8.24h8.2zm1.974 47.85c5.76-.006 10.424-4.677 10.418-10.433-.005-5.755-4.679-10.417-10.438-10.411-5.76.006-10.424 4.676-10.419 10.432.006 5.756 4.68 10.417 10.44 10.412z" fill="#C1D9FA"/><path d="M36.189 49.31c0-6.378 5.1-11.614 11.252-12.035v-23.74H37.256c-.453 0-.752-.34-.752-.793V2.461H3.554v58.926h43.887v-.043c-6.152-.421-11.252-5.658-11.252-12.035z" fill="#2F80ED"/><path d="M60.087 59.15l-1.933 1.932 6.042 6.04.06.056a1.373 1.373 0 002.15-.51 1.357 1.357 0 00-.3-1.5l-6.02-6.018zm-4.309-1.217l1.16-1.16 2.176 2.176-1.16 1.16-2.176-2.176z" fill="#C1D9FA"/><path d="M31.154 22.756v-.001a.657.657 0 00-.663-.536H19.882a.66.66 0 00-.662.541h0v.001l-.965 5.395s0 0 0 0a.623.623 0 00.148.53h0a.65.65 0 00.516.214h12.535a.642.642 0 00.664-.76s0 0 0 0l-.964-5.384z" fill="#6CA9FC" stroke="#2F80ED" stroke-width=".2"/><path d="M10.203 36.401h0a.657.657 0 00.516.22h12.536a.644.644 0 00.664-.762s0 0 0 0l-.965-5.384h0a.656.656 0 00-.663-.536H11.682a.66.66 0 00-.662.54h0l-.965 5.386s0 0 0 0a.636.636 0 00.148.536h0z" fill="#C1D9FA" stroke="#2F80ED" stroke-width=".2"/><path d="M27.42 30.48h0l-.965 5.395s0 0 0 0a.624.624 0 00.148.53h0a.652.652 0 00.515.216h12.536a.644.644 0 00.664-.762s0 0 0 0l-.964-5.384h0a.656.656 0 00-.663-.536H28.08a.66.66 0 00-.662.54z" fill="#97BFF6" stroke="#2F80ED" stroke-width=".2"/></svg>