<svg width="53" height="70" fill="none" xmlns="http://www.w3.org/2000/svg"><path d="M18.772 8.932c.31-1.15.27-2.366-.115-3.494a6.022 6.022 0 00-2.052-2.84A6.102 6.102 0 009.88 2.16a6.039 6.039 0 00-2.407 2.55 5.98 5.98 0 00.88 6.633 6.073 6.073 0 002.99 1.846 6.112 6.112 0 004.601-.604 6.033 6.033 0 002.828-3.653zm-7.566 1.75l.045-.167a2.04 2.04 0 01-.744-2.163.676.676 0 011.23-.16c.09.153.114.335.067.506a.715.715 0 00.26.757.729.729 0 001.092-.253.715.715 0 00-.106-.793.726.726 0 00-.357-.22 2.067 2.067 0 01-1.164-.812 2.04 2.04 0 01.255-2.64c.35-.339.81-.544 1.298-.577l.028-.101a.676.676 0 011.23-.16.662.662 0 01.067.505l-.027.099a2.041 2.041 0 01.845 2.234.676.676 0 01-1.23.16.662.662 0 01-.067-.505.717.717 0 00-.439-.858.69.69 0 01-.152-.04.73.73 0 00-.523.12.72.72 0 00-.204.969c.098.156.251.27.43.318.483.128.903.425 1.182.837a2.04 2.04 0 01-.34 2.677c-.373.33-.854.515-1.354.52l-.025.092a.676.676 0 01-1.23.16.662.662 0 01-.067-.505zm23.161 27.945a6.108 6.108 0 003.52-.115 6.064 6.064 0 002.862-2.036 5.984 5.984 0 00.44-6.675 6.048 6.048 0 00-2.57-2.389 6.105 6.105 0 00-6.682.873 5.988 5.988 0 00-1.25 7.535 6.066 6.066 0 003.68 2.807zm1.35-5a2.067 2.067 0 01-1.165-.813 2.04 2.04 0 01.258-2.641 2.075 2.075 0 011.3-.576l.025-.094a.676.676 0 011.23-.16.662.662 0 01.067.505l-.025.095a2.041 2.041 0 01.843 2.232.667.667 0 01-.56.488.676.676 0 01-.67-.327.663.663 0 01-.067-.506.716.716 0 00-.419-.849.616.616 0 01-.192-.051.729.729 0 00-.801.576.715.715 0 00.524.833 2.06 2.06 0 011.18.837 2.04 2.04 0 01-.338 2.675c-.372.33-.852.516-1.352.522l-.027.1a.676.676 0 01-1.23.16.662.662 0 01-.067-.506l.047-.172a2.04 2.04 0 01-.746-2.165.676.676 0 011.23-.16.66.66 0 01.066.505.715.715 0 00.26.758.728.728 0 001.092-.253.715.715 0 00-.463-1.014zm8.905-16.561l-2.947-1.355a2.732 2.732 0 01.554 3.103c-.239.511-.63.937-1.121 1.22a2.788 2.788 0 01-1.624.363l2.931 1.347c.576-.6 1.446-.846 2.345-.66l.853-1.826c-.715-.557-1.082-1.371-.991-2.192zm-7.507 1.539a2.733 2.733 0 01.397-2.613 2.79 2.79 0 012.432-1.076l-2.928-1.346c-.575.6-1.445.846-2.345.66l-.852 1.823c.74.562 1.111 1.373 1.012 2.206l2.924 1.344a2.738 2.738 0 01-.64-.998z" fill="#97BFF6"/><path d="M50.295 16.196L33.997 8.703a.675.675 0 00-.892.325L28.81 18.23a.662.662 0 00.327.885l16.297 7.493a.68.68 0 00.567-.001.67.67 0 00.325-.324l4.295-9.203a.662.662 0 00-.327-.884zm-3.215 3.09l-1.35 2.891a.67.67 0 01-.88.33c-.691-.303-1.342-.15-1.62.38a.67.67 0 01-.77.335.683.683 0 01-.108-.039l-8.588-3.948a.668.668 0 01-.34-.857c.232-.561-.065-1.14-.755-1.472a.668.668 0 01-.316-.88l1.349-2.891a.67.67 0 01.88-.33c.692.304 1.343.15 1.62-.38a.67.67 0 01.879-.296l8.606 3.957a.662.662 0 01.34.856c-.227.554.069 1.142.737 1.464a.668.668 0 01.315.88z" fill="#2F80ED"/><path d="M41.01 18.252a1.408 1.408 0 00-.453-1.74 1.435 1.435 0 00-1.809.102 1.414 1.414 0 00-.25 1.78 1.437 1.437 0 002.186.305 1.41 1.41 0 00.327-.447z" fill="#2F80ED"/><path d="M13.393 27.01a2.734 2.734 0 01-1.196-.676 2.704 2.704 0 01-.756-2.535c.103-.452.32-.87.633-1.214L9.14 25.738c.423.757.39 1.695-.09 2.52l1.575 1.443c.797-.555 1.73-.662 2.528-.291l2.936-3.155a2.738 2.738 0 01-2.696.756zm.602-5.323a2.744 2.744 0 011.525.39c.458.276.825.68 1.053 1.162a2.69 2.69 0 01-.434 2.96l2.929-3.148c-.423-.756-.39-1.694.09-2.519l-1.578-1.447c-.784.533-1.718.634-2.508.276l-2.96 3.182a2.72 2.72 0 011.883-.856z" fill="#97BFF6"/><path d="M13.163 25.406a1.391 1.391 0 002.124-.292 1.37 1.37 0 00-.703-2.01 1.396 1.396 0 00-1.498.357 1.372 1.372 0 00.077 1.945z" fill="#2F80ED"/><path d="M16.416 13.739a.675.675 0 00-.466.213L3.764 27.05a.664.664 0 00.038.942l7.508 6.881a.674.674 0 00.949-.037l12.185-13.098a.663.663 0 00-.038-.941l-7.508-6.881a.674.674 0 00-.482-.176zm.7 3.996a.674.674 0 01.94-.028l2.45 2.245a.664.664 0 01.046.933c-.523.583-.58 1.301-.137 1.746a.664.664 0 01.015.92l-6.669 7.168a.674.674 0 01-.926.058c-.489-.41-1.19-.299-1.742.275a.674.674 0 01-.94.029l-2.45-2.246a.664.664 0 01-.047-.933c.524-.583.58-1.301.137-1.746a.664.664 0 01-.015-.92l6.684-7.184a.674.674 0 01.925-.058c.49.408 1.185.305 1.729-.259z" fill="#2F80ED"/><path d="M36.225 49.793v7.348a3.568 3.568 0 001.05 2.552 3.623 3.623 0 002.563 1.063h6.881V46.172h-6.881a3.65 3.65 0 00-2.563 1.066 3.597 3.597 0 00-1.05 2.554zm4.591 1.1a.78.78 0 01.23-.553.79.79 0 011.344.552v5.15a.778.778 0 01-.23.553.79.79 0 01-1.113 0 .778.778 0 01-.23-.553v-5.15z" fill="#97BFF6"/><path d="M43.112 36.929H7.017c-2.008 0-3.587 1.68-3.587 3.672v25.732C3.43 68.327 5.009 70 7.017 70h36.095c2.008 0 3.607-1.673 3.607-3.666v-4.016h-6.881a5.23 5.23 0 01-3.675-1.52 5.125 5.125 0 01-1.512-3.656v-7.349a5.13 5.13 0 011.511-3.658 5.206 5.206 0 013.676-1.524h6.881V40.6c0-1.992-1.6-3.672-3.607-3.672z" fill="#2F80ED"/></svg>