<svg width="67" height="80" fill="none" xmlns="http://www.w3.org/2000/svg"><path d="M61.675 64.239l4.95-29.37H50.41a17.04 17.04 0 01-33.941 0H.252l4.95 29.37h56.472z" fill="#2F80ED"/><path opacity=".5" d="M33.439 48.286a14.919 14.919 0 10-14.918-14.918 14.935 14.935 0 0014.918 14.918zm0-13.328a5.2 5.2 0 01-1.062-10.29v-1.314a1.061 1.061 0 112.124 0v1.314a5.208 5.208 0 014.138 5.09 1.062 1.062 0 01-2.123 0 3.077 3.077 0 10-3.077 3.077 5.199 5.199 0 01.708 10.35v1.4a1.061 1.061 0 11-2.123 0v-1.548a5.208 5.208 0 01-3.785-5.003 1.062 1.062 0 112.123 0 3.077 3.077 0 103.077-3.076z" fill="#2F80ED"/><path d="M54.67 80a3.892 3.892 0 100-7.785 3.892 3.892 0 000 7.785zm-42.462 0a3.892 3.892 0 100-7.785 3.892 3.892 0 000 7.785z" fill="#97BFF6"/><path d="M0 66.362h66.878v3.185H0v-3.185z" fill="#6CA9FC"/><path opacity=".4" d="M33.439 8.316a1.061 1.061 0 001.062-1.062V1.062a1.062 1.062 0 00-2.124 0v6.192a1.062 1.062 0 001.062 1.062z" fill="#2F80ED"/><path opacity=".5" d="M54.56 17.621a1.059 1.059 0 00.75-.31l4.449-4.449a1.064 1.064 0 000-1.501 1.061 1.061 0 00-1.502 0l-4.448 4.448a1.061 1.061 0 00.751 1.812z" fill="#2F80ED"/><path opacity=".7" d="M11.479 17.385a1.061 1.061 0 101.501-1.501l-4.448-4.448a1.06 1.06 0 00-1.812.75 1.062 1.062 0 00.31.751l4.449 4.448z" fill="#2F80ED"/><path d="M20.156 10.937a1.06 1.06 0 001.969-.051 1.06 1.06 0 00-.032-.818l-2.576-5.74a1.063 1.063 0 00-1.74-.293A1.061 1.061 0 0017.58 5.2l2.576 5.738zm23.45-.109a1.06 1.06 0 001.37-.614l2.236-5.88a1.061 1.061 0 10-1.984-.754l-2.237 5.879a1.062 1.062 0 00.615 1.37z" fill="#2F80ED"/></svg>