<svg width="72" height="71" fill="none" xmlns="http://www.w3.org/2000/svg"><path d="M39.506 15.756c0-.481.052-.933.092-1.4H.218v55.58c0 .015.11.027.152-.008l6.605-5.506a1.992 1.992 0 012.5-.028l7.888 6.376a.136.136 0 00.162-.009l7.776-6.355a1.994 1.994 0 012.492-.009l7.797 6.373a.133.133 0 00.16-.008l7.861-6.359a1.982 1.982 0 012.493.01l6.586 5.516c.042.035.104.023.104.008V32.164a16.734 16.734 0 01-9.55-5.843 16.78 16.78 0 01-3.738-10.565zM11.488 24.92h15.461a.93.93 0 01.93.932.933.933 0 01-.93.932H11.488a.93.93 0 01-.93-.932.932.932 0 01.93-.932zm30.13 22.367h-30.13a.93.93 0 01-.93-.932.932.932 0 01.93-.931h30.13a.93.93 0 01.93.931.933.933 0 01-.93.932zm0-10.251h-30.13a.93.93 0 01-.93-.932.932.932 0 01.93-.932h30.13a.93.93 0 01.93.932.933.933 0 01-.93.932z" fill="#2F80ED"/><path d="M56.308.793c-2.949 0-5.831.876-8.283 2.516a14.928 14.928 0 00-5.492 6.702 14.955 14.955 0 003.232 16.274 14.89 14.89 0 0016.25 3.237 14.915 14.915 0 006.69-5.5 14.949 14.949 0 002.514-8.296A14.961 14.961 0 0066.847 5.17 14.915 14.915 0 0056.308.793zm0 14.526c1.303 0 2.555.507 3.493 1.413a5.044 5.044 0 01-3.13 8.654v1.553a.933.933 0 01-.93.932.93.93 0 01-.93-.932v-1.767a5.054 5.054 0 01-3.535-4.813.933.933 0 01.93-.931.93.93 0 01.93.932 3.18 3.18 0 001.958 2.935 3.167 3.167 0 003.457-.688 3.178 3.178 0 00-2.243-5.423 5.027 5.027 0 01-3.4-1.323 5.043 5.043 0 012.523-8.68V5.969a.933.933 0 01.93-.932.93.93 0 01.93.932V7.2a5.04 5.04 0 012.907 1.748 5.053 5.053 0 011.143 3.196.933.933 0 01-.93.931.93.93 0 01-.93-.931 3.18 3.18 0 00-1.96-2.935 3.167 3.167 0 00-3.456.689 3.179 3.179 0 002.243 5.423z" fill="#97BFF6"/></svg>