<svg width="61" height="80" fill="none" xmlns="http://www.w3.org/2000/svg"><path opacity=".7" d="M44.254 32.458h2.014l4.549-8.637-21.154-11.096-10.39 19.733h2.015l5.949-11.282a1.057 1.057 0 011.403-.433c1.919.896 4.018.02 5.224-2.177a1.072 1.072 0 011.439-.434l7.893 4.145a1.067 1.067 0 01.46 1.425c-1.124 2.237-.654 4.525 1.143 5.58a1.05 1.05 0 01.407 1.403l-.952 1.773z" fill="#2F80ED"/><path opacity=".5" d="M35.18 20.472c-1.62 2.23-4.092 3.18-6.48 2.53l-4.99 9.456h18.12l1.044-1.946c-1.853-1.597-2.454-4.226-1.548-6.82l-6.147-3.22z" fill="#2F80ED"/><path opacity=".7" d="M45.8 52.262V62.35a4.931 4.931 0 004.923 4.961H60.1V47.293h-9.376a4.94 4.94 0 00-4.922 4.97zm6.256 1.509a1.072 1.072 0 012.145 0v7.07a1.072 1.072 0 01-2.145 0v-7.07z" fill="#2F80ED"/><path d="M55.184 34.603H6.006c-2.736 0-4.888 2.306-4.888 5.04v35.324C1.118 77.704 3.27 80 6.006 80h49.178c2.736 0 4.915-2.296 4.915-5.032v-5.513h-9.376a7.08 7.08 0 01-7.067-7.106V52.262a7.086 7.086 0 017.067-7.114h9.376v-5.505c0-2.734-2.18-5.04-4.915-5.04z" fill="#2F80ED"/><path opacity=".5" d="M9.959 19.917A9.958 9.958 0 100 9.96a9.97 9.97 0 009.959 9.958zm0-8.52A3.93 3.93 0 018.804 3.71v-.564a1.072 1.072 0 012.144 0v.518a3.936 3.936 0 012.94 3.803 1.072 1.072 0 11-2.145 0 1.788 1.788 0 00-1.408-1.744 1.063 1.063 0 01-.858.027 1.783 1.783 0 00.48 3.501 3.929 3.929 0 01.991 7.73v.642a1.072 1.072 0 11-2.144 0v-.688A3.935 3.935 0 016.03 13.18a1.072 1.072 0 012.144 0 1.786 1.786 0 001.574 1.77 1.068 1.068 0 01.31.008 1.783 1.783 0 00-.1-3.563z" fill="#2F80ED"/></svg>