<svg width="88" height="80" fill="none" xmlns="http://www.w3.org/2000/svg"><path d="M43.78 25.53A14.47 14.47 0 1058.273 40 14.499 14.499 0 0043.78 25.53zm.004 13.404a4.084 4.084 0 011.051 8.03v1.096a1.051 1.051 0 11-2.102 0v-1.096a4.09 4.09 0 01-3.033-3.946 1.051 1.051 0 012.103 0 1.981 1.981 0 101.98-1.982 4.084 4.084 0 01-.875-8.072v-.674a1.051 1.051 0 012.102 0v.767a4.091 4.091 0 012.858 3.895 1.051 1.051 0 11-2.103 0 1.982 1.982 0 10-1.981 1.982z" fill="#2F80ED"/><path opacity=".5" d="M63.08 44.112a1.075 1.075 0 01.943-.819l4.644-.452V37.16l-4.708-.453a1.075 1.075 0 01-.946-.824 19.143 19.143 0 00-2.77-6.555 1.052 1.052 0 01.066-1.253l2.99-3.607-3.952-3.993-3.6 2.983a1.051 1.051 0 01-1.238.073 19.836 19.836 0 00-6.576-2.774 1.065 1.065 0 01-.827-.939l-.453-4.7h-5.691l-.454 4.7a1.08 1.08 0 01-.825.95 19.14 19.14 0 00-6.565 2.76 1.051 1.051 0 01-1.252-.067l-3.603-2.988-4.01 4.002 2.986 3.602a1.052 1.052 0 01.07 1.244 19.933 19.933 0 00-2.78 6.567 1.058 1.058 0 01-.93.819l-4.698.453v5.68l4.699.453a1.064 1.064 0 01.936.823 19.145 19.145 0 002.77 6.555 1.052 1.052 0 01-.065 1.254l-2.987 3.602 4.01 4.001 3.603-2.986a1.051 1.051 0 011.24-.073 19.838 19.838 0 006.574 2.774 1.064 1.064 0 01.828.939l.453 4.7h5.691l.453-4.7a1.08 1.08 0 01.826-.95 19.141 19.141 0 006.565-2.76 1.052 1.052 0 011.25.067l3.604 2.988 4.01-4.002-2.987-3.602a1.052 1.052 0 01-.072-1.244 19.936 19.936 0 002.777-6.567zm-19.3 12.461A16.575 16.575 0 1160.376 40 16.604 16.604 0 0143.78 56.573z" fill="#2F80ED"/><path d="M80.635 36.454a1.052 1.052 0 00-1.619 0l-6.694 8.07a1.104 1.104 0 00.243 1.603c.168.112.364.175.566.181h5.29a36.588 36.588 0 01-12.5 22.93c-6.442 5.522-14.535 8.674-22.205 8.674-5.003 0-10.233-1.356-15.125-3.906a37.579 37.579 0 01-12.877-11.05 1.05 1.05 0 10-1.696 1.24 39.684 39.684 0 0013.601 11.667C32.81 78.57 38.376 80 43.716 80c8.164 0 16.756-3.322 23.573-9.167A38.925 38.925 0 0080.54 46.308h5.978a1.08 1.08 0 00.952-.635 1.104 1.104 0 00-.143-1.149l-6.692-8.07zm-65.247-2.127a1.08 1.08 0 00-.951-.635h-5.29a36.588 36.588 0 0112.5-22.93C28.09 5.24 36.182 2.089 43.852 2.089c5.003 0 10.233 1.355 15.124 3.906a37.578 37.578 0 0112.878 11.05 1.05 1.05 0 101.696-1.24A39.684 39.684 0 0059.948 4.137C54.758 1.43 49.192 0 43.852 0c-8.165 0-16.757 3.322-23.573 9.167A38.925 38.925 0 007.027 33.692H1.05a1.088 1.088 0 00-.81 1.769l6.694 8.078a1.05 1.05 0 001.619.005l6.693-8.084a1.076 1.076 0 00.142-1.133z" fill="#2F80ED"/></svg>