<svg width="80" height="80" fill="none" xmlns="http://www.w3.org/2000/svg"><path d="M40 65.77c14.243 0 25.83-11.56 25.83-25.77 0-14.21-11.587-25.77-25.83-25.77-14.243 0-25.83 11.56-25.83 25.77 0 14.21 11.587 25.77 25.83 25.77zm-.938-1.895c-12.465-.482-22.516-10.438-22.998-22.938h6.549a17.28 17.28 0 0016.45 16.355v6.583zm1.876 0v-6.594A17.35 17.35 0 0057.19 40.938h6.746c-.481 12.5-10.533 22.455-22.998 22.937zm0-47.75c12.462.48 22.511 10.438 22.997 22.938H57.19c-.472-8.75-7.497-15.826-16.252-16.346v-6.592zm-.313 13.719v1.33A5.185 5.185 0 0145.08 36.3a.938.938 0 01-1.875 0 3.304 3.304 0 10-3.304 3.304 5.178 5.178 0 01.724 10.305v1.341a.937.937 0 11-1.875 0v-1.42a5.187 5.187 0 01-4.027-5.048.937.937 0 111.875 0A3.304 3.304 0 1039.9 41.48a5.178 5.178 0 01-1.151-10.227v-1.408a.937.937 0 111.875 0zm-1.563-13.719v6.581a17.286 17.286 0 00-16.449 16.357h-6.548c.486-12.5 10.535-22.457 22.997-22.938z" fill="#2F80ED"/><path opacity=".5" d="M8.447 40c0 17.398 14.155 31.553 31.553 31.553 17.398 0 31.553-14.155 31.553-31.553C71.553 22.602 57.398 8.447 40 8.447 22.602 8.447 8.447 22.6 8.447 40zM40 10.322c16.364 0 29.678 13.313 29.678 29.678 0 16.364-13.314 29.678-29.678 29.678S10.322 56.364 10.322 40 23.636 10.322 40 10.322z" fill="#2F80ED"/><path d="M65.73 14.27A36.124 36.124 0 0044.962 3.95a.938.938 0 00-.256 1.857 34.531 34.531 0 0129.488 29.489.938.938 0 001.857-.257A36.124 36.124 0 0065.73 14.271zM35.038 76.05a.946.946 0 00.769-.243.938.938 0 00-.513-1.614A34.532 34.532 0 015.806 44.706a.937.937 0 00-1.857.257A36.406 36.406 0 0035.038 76.05z" fill="#2F80ED"/><path opacity=".3" d="M4.75 36.095a.937.937 0 001.057-.8A34.53 34.53 0 0135.294 5.806a.937.937 0 10-.256-1.858A36.407 36.407 0 003.949 35.04a.938.938 0 00.801 1.056z" fill="#2F80ED"/><path opacity=".7" d="M75.25 43.906a.937.937 0 00-1.057.8 34.532 34.532 0 01-29.487 29.488.938.938 0 10.256 1.858A36.407 36.407 0 0076.05 44.963a.936.936 0 00-.8-1.057z" fill="#2F80ED"/></svg>