<svg width="47" height="74" fill="none" xmlns="http://www.w3.org/2000/svg"><path d="M30.238 45.67a11.825 11.825 0 1011.825 11.824 11.838 11.838 0 00-11.825-11.825zm4.967 13.877h-5.676a.98.98 0 01-.935-.989v-7.45a.937.937 0 111.875 0v6.564h4.736a.937.937 0 110 1.875zM18.508 0a12.555 12.555 0 1012.554 12.555A12.568 12.568 0 0018.507 0zm0 12.064a4.43 4.43 0 01.555 8.828v.999a.937.937 0 11-1.875 0v-1.164a4.44 4.44 0 01-3.112-4.231.938.938 0 011.875 0 2.557 2.557 0 102.556-2.557 4.432 4.432 0 01-1.163-8.707v-.998a.937.937 0 111.875 0v.9a4.438 4.438 0 013.72 4.374.937.937 0 11-1.875 0 2.557 2.557 0 10-2.556 2.556z" fill="#2F80ED"/><path d="M23.438 30.016h2.968v6.093h-2.968v-6.093zm-9.844 0h2.969v6.093h-2.97v-6.093zm4.687 14.287v-6.006h-3.125v6.094h2.994c.026 0-.025-.065.131-.088zm-15-14.287H6.72v6.093H3.28v-6.093zm5.313 0h3.125v6.093H8.594v-6.093zM0 38.297h3.438v6.094H0v-6.094zm28.438 0H25v2.128a18.887 18.887 0 013.438-.692v-1.436zm-10-8.281h3.125v6.093h-3.125v-6.093zm4.687 8.281h-2.969v4.515a15.98 15.98 0 012.969-1.693v-2.822zm5.156-8.281h3.438v6.093H28.28v-6.093zm-17.968 8.281h2.968v6.094h-2.969v-6.094zm3.281 8.125v4.742a16.58 16.58 0 012.662-4.742h-2.662zm-.969 8.125h-2.313v6.25h2.376a18.488 18.488 0 01-.063-6.25z" fill="#97BFF6"/><path d="M30.238 41.52a15.974 15.974 0 1015.974 15.974A15.993 15.993 0 0030.238 41.52zm0 29.673a13.7 13.7 0 1113.7-13.7 13.715 13.715 0 01-13.7 13.7z" fill="#6CA9FC"/><path d="M5.313 38.297h3.125v6.094H5.312v-6.094zM0 54.547h3.438v6.25H0v-6.25zm5.313 0h3.125v6.25H5.312v-6.25zm-2.032-8.125H6.72v6.094H3.28v-6.094zm5.313 0h3.125v6.094H8.594v-6.094z" fill="#97BFF6"/></svg>