<svg width="252" height="51" fill="none" xmlns="http://www.w3.org/2000/svg"><path d="M1 50l1.894-6.21c1.894-6.21 5.682-18.628 9.47-21.356 3.787-2.727 7.575 4.238 11.363 6.694 3.788 2.457 7.576.406 11.364-2.727 3.788-3.134 7.576-7.35 11.364-8.47 3.787-1.118 7.575.86 11.363 6.392 3.788 5.532 7.576 14.618 11.364 15.366 3.788.749 7.576-6.84 11.364-12.1 3.787-5.258 7.575-8.184 11.363-5.679 3.788 2.506 7.576 10.445 11.364 12.833 3.788 2.39 7.575-.77 11.363-7.02 3.788-6.25 7.576-15.588 11.364-19.836 3.788-4.248 7.576-3.405 11.364 2.72 3.788 6.123 7.575 17.53 11.363 17.404 3.788-.126 7.576-11.782 11.364-15.768 3.788-3.987 7.576-.302 11.364-.042 3.787.26 7.575-2.903 11.363-6.352 3.788-3.449 7.576-7.184 11.364-2.988 3.788 4.195 7.576 16.321 11.363 21.765 3.788 5.445 7.576 4.208 11.364-.754 3.788-4.963 7.576-13.65 11.364-17.773 3.788-4.123 7.575-3.682 11.363.031 3.788 3.713 7.576 10.697 9.47 14.19L251 23.812" stroke="#2F80ED" stroke-width="2"/></svg>