<svg width="252" height="51" fill="none" xmlns="http://www.w3.org/2000/svg"><path d="M1 50l2.083-1.424c2.084-1.425 6.25-4.273 10.417-4.57 4.167-.297 8.333 1.958 12.5 3.598s8.333 2.666 12.5-.088 8.333-9.288 12.5-13.51c4.167-4.221 8.333-6.131 12.5-6.038 4.167.092 8.333 2.188 12.5-.045 4.167-2.234 8.333-8.795 12.5-5.946 4.167 2.85 8.333 15.112 12.5 14.818 4.167-.292 8.333-13.14 12.5-19.557 4.167-6.417 8.333-6.405 12.5-6.009 4.167.396 8.333 1.175 12.5 5.205s8.333 11.308 12.5 11.276c4.167-.032 8.333-7.376 12.5-10.745 4.167-3.37 8.333-2.766 12.5-.018s8.333 7.64 12.5 12.79c4.167 5.15 8.333 10.557 12.5 11.303 4.167.746 8.333-3.17 12.5-10.109s8.333-16.9 12.5-15.74c4.167 1.16 8.333 13.441 12.5 12.93 4.167-.512 8.333-13.816 10.417-20.469L251 1" stroke="#2F80ED" stroke-width="2"/></svg>