<svg width="252" height="51" fill="none" xmlns="http://www.w3.org/2000/svg"><path d="M1 20.852l2.083 4.334c2.084 4.333 6.25 13 10.417 17.172 4.167 4.171 8.333 3.847 12.5.422s8.333-9.95 12.5-10.703c4.167-.753 8.333 4.267 12.5 6.011 4.167 1.745 8.333.214 12.5 1.692 4.167 1.477 8.333 5.963 12.5 8.312 4.167 2.348 8.333 2.56 12.5.464 4.167-2.097 8.333-6.5 12.5-10.754 4.167-4.253 8.333-8.355 12.5-11.507 4.167-3.152 8.333-5.354 12.5-6.704 4.167-1.35 8.333-1.85 12.5-4.18 4.167-2.329 8.333-6.488 12.5-9.178 4.167-2.69 8.333-3.91 12.5-2.599 4.167 1.312 8.333 5.156 12.5 11.306 4.167 6.15 8.333 14.608 12.5 14.714 4.167.107 8.333-8.137 12.5-14.081 4.167-5.945 8.333-9.59 12.5-6.996 4.167 2.593 8.333 11.425 12.5 14.15 4.167 2.727 8.333-.652 12.5-5.291 4.167-4.64 8.333-10.538 10.417-13.487L251 1" stroke="#2F80ED" stroke-width="2"/></svg>