<svg width="252" height="51" fill="none" xmlns="http://www.w3.org/2000/svg"><path d="M1 50l2.083-.648c2.084-.648 6.25-1.944 10.417-4.185 4.167-2.24 8.333-5.426 12.5-9.465 4.167-4.04 8.333-8.933 12.5-7.58 4.167 1.355 8.333 8.956 12.5 12.55 4.167 3.595 8.333 3.182 12.5 1.067 4.167-2.116 8.333-5.935 12.5-8.67 4.167-2.736 8.333-4.388 12.5-2.85 4.167 1.536 8.333 6.261 12.5 3.845 4.167-2.417 8.333-11.975 12.5-16.463 4.167-4.488 8.333-3.905 12.5-6.258 4.167-2.354 8.333-7.643 12.5-9.226 4.167-1.583 8.333.54 12.5 5.56s8.333 12.938 12.5 17.68c4.167 4.743 8.333 6.312 12.5 3.764 4.167-2.548 8.333-9.214 12.5-14.43 4.167-5.216 8.333-8.982 12.5-11.357s8.333-3.36 12.5-.917c4.167 2.442 8.333 8.313 12.5 7.927 4.167-.385 8.333-7.027 12.5-6.563 4.167.463 8.333 8.031 10.417 11.815L251 19.38" stroke="#2F80ED" stroke-width="2"/></svg>