<svg width="147" height="20" fill="none" xmlns="http://www.w3.org/2000/svg"><g clip-path="url(#clip0_2_1057)"><path d="M4.476 19.596a1.063 1.063 0 01-1.036-1.3l1.287-5.668L.364 8.8a1.062 1.062 0 01.602-1.86l5.774-.524 2.282-5.342a1.063 1.063 0 011.955 0l2.283 5.342 5.773.524a1.062 1.062 0 01.604 1.86l-4.364 3.826 1.287 5.668a1.062 1.062 0 01-1.582 1.148L10 16.468l-4.98 2.977c-.168.1-.355.15-.545.15zM6.696 6.52l-.001.002V6.52zm6.607-.002v.001-.001z" fill="#FFBD00"/></g><g clip-path="url(#clip1_2_1057)"><path d="M36.143 19.596a1.063 1.063 0 01-1.036-1.3l1.287-5.668L32.031 8.8a1.062 1.062 0 01.602-1.86l5.774-.524 2.282-5.342a1.063 1.063 0 011.955 0l2.283 5.342 5.772.524a1.064 1.064 0 01.605 1.861l-4.364 3.825 1.287 5.668a1.062 1.062 0 01-1.582 1.148l-4.978-2.975-4.979 2.977c-.168.1-.356.15-.545.15zm2.22-13.076l-.002.002.002-.002zm6.606-.002l.001.001v-.001z" fill="#FFBD00"/></g><g clip-path="url(#clip2_2_1057)"><path d="M67.81 19.596a1.063 1.063 0 01-1.036-1.3l1.287-5.668L63.697 8.8a1.062 1.062 0 01.603-1.86l5.773-.524 2.283-5.342a1.063 1.063 0 011.955 0l2.282 5.342 5.773.524a1.064 1.064 0 01.605 1.861l-4.364 3.825 1.286 5.668a1.062 1.062 0 01-1.581 1.148l-4.979-2.975-4.978 2.977c-.169.1-.356.15-.545.15zM70.029 6.52l-.001.002.001-.002zm6.607-.002v.001-.001z" fill="#FFBD00"/></g><g clip-path="url(#clip3_2_1057)"><path d="M99.476 19.596a1.064 1.064 0 01-1.036-1.3l1.287-5.668L95.364 8.8a1.062 1.062 0 01.602-1.86l5.774-.524 2.282-5.342a1.064 1.064 0 011.955 0l2.283 5.342 5.773.524a1.062 1.062 0 01.604 1.86l-4.364 3.826 1.287 5.668a1.062 1.062 0 01-1.582 1.148L105 16.468l-4.979 2.977c-.168.1-.355.15-.545.15zm2.22-13.076l-.001.002.001-.002zm6.606-.002l.001.001-.001-.001z" fill="#FFBD00"/></g><g clip-path="url(#clip4_2_1057)"><path d="M131.143 19.596a1.064 1.064 0 01-1.036-1.3l1.287-5.668-4.363-3.827a1.063 1.063 0 01.602-1.86l5.774-.524 2.282-5.342a1.063 1.063 0 011.955 0l2.283 5.342 5.772.524a1.064 1.064 0 01.605 1.861l-4.364 3.825 1.287 5.668a1.064 1.064 0 01-1.582 1.148l-4.978-2.975-4.979 2.977c-.168.1-.356.15-.545.15zm2.219-13.076v.002-.002zm6.607-.002l.001.001-.001-.001z" fill="#FFBD00"/></g><defs><clipPath id="clip0_2_1057"><path fill="#fff" d="M0 0h20v20H0z"/></clipPath><clipPath id="clip1_2_1057"><path fill="#fff" transform="translate(31.667)" d="M0 0h20v20H0z"/></clipPath><clipPath id="clip2_2_1057"><path fill="#fff" transform="translate(63.333)" d="M0 0h20v20H0z"/></clipPath><clipPath id="clip3_2_1057"><path fill="#fff" transform="translate(95)" d="M0 0h20v20H0z"/></clipPath><clipPath id="clip4_2_1057"><path fill="#fff" transform="translate(126.667)" d="M0 0h20v20H0z"/></clipPath></defs></svg>