<svg width="74" height="24" fill="none" xmlns="http://www.w3.org/2000/svg"><path d="M31.98 23.505h-6L29.753.371h6L31.98 23.505zM20.907.371l-5.752 15.897-.68-3.402-2.042-10.392S12.186.371 9.588.371H.124L0 .742s2.907.619 6.31 2.66l5.257 20.103h6.247L27.402.371h-6.495zm47.382 23.134h5.505L68.969.371h-4.825c-2.226 0-2.783 1.732-2.783 1.732l-8.97 21.402h6.248l1.237-3.464h7.67l.743 3.464zm-6.619-8.227l3.155-8.66 1.794 8.66H61.67zm-8.845-9.34L53.69.99S51.03 0 48.247 0c-2.969 0-10.082 1.299-10.082 7.67 0 6 8.35 6.062 8.35 9.217 0 3.154-7.484 2.598-9.958.618l-.866 5.196S38.35 24 42.495 24c4.082 0 10.33-2.103 10.33-7.918 0-6-8.413-6.556-8.413-9.216 0-2.722 5.877-2.35 8.413-.928z" fill="#0066B3"/><path d="M14.474 12.866L12.433 2.474S12.186.371 9.588.371H.124L0 .742s4.577.928 8.907 4.516c4.206 3.34 5.567 7.608 5.567 7.608z" fill="#FAA634"/></svg>